<svg width="22" height="24" viewBox="0 0 22 24" fill="none" xmlns="http://www.w3.org/2000/svg">
<rect y="0.860107" width="6" height="6" fill="white"/>
<rect x="16" y="0.860107" width="6" height="6" fill="white"/>
<rect x="16" y="17.8601" width="6" height="6" fill="white"/>
<rect y="17.8601" width="6" height="6" fill="white"/>
<rect x="2" y="5.86011" width="1.5" height="5" fill="white"/>
<rect x="2" y="13.8601" width="1.5" height="5" fill="white"/>
<rect x="18" y="5.86011" width="1.5" height="5" fill="white"/>
<rect x="17" y="2.86011" width="1.5" height="5" transform="rotate(90 17 2.86011)" fill="white"/>
<rect x="10" y="2.86011" width="1.5" height="5" transform="rotate(90 10 2.86011)" fill="white"/>
<rect x="17" y="19.8601" width="1.5" height="5" transform="rotate(90 17 19.8601)" fill="white"/>
<rect x="10" y="19.8601" width="1.5" height="5" transform="rotate(90 10 19.8601)" fill="white"/>
<rect x="18" y="13.8601" width="1.5" height="5" fill="white"/>
</svg>
