<svg width="580" height="504" viewBox="0 0 580 504" fill="none" xmlns="http://www.w3.org/2000/svg">
<path d="M305.869 145.282L304.187 155.127L300.178 153.489L305.869 145.282Z" fill="#BFD1D1"/>
<path d="M201.133 401.718L202.815 391.873L206.824 393.51L201.133 401.718Z" fill="#BFD1D1"/>
<path d="M380.499 218.237L372.422 224.113L370.694 220.142L380.499 218.237Z" fill="#BFD1D1"/>
<path d="M126.504 328.763L134.581 322.887L136.309 326.858L126.504 328.763Z" fill="#BFD1D1"/>
<path d="M381.719 325.868L371.874 324.186L373.511 320.177L381.719 325.868Z" fill="#BFD1D1"/>
<path d="M125.283 221.132L135.128 222.814L133.491 226.823L125.283 221.132Z" fill="#BFD1D1"/>
<path d="M307.135 401.193L301.364 393.043L305.356 391.366L307.135 401.193Z" fill="#BFD1D1"/>
<path d="M199.867 145.807L205.639 153.957L201.647 155.634L199.867 145.807Z" fill="#BFD1D1"/>
<path fill-rule="evenodd" clip-rule="evenodd" d="M268.954 272.682L254.001 68L239.047 272.682H239.001L239.024 273L239.001 273.318H239.047L254.001 478L268.954 273.318H269.001L268.978 273L269.001 272.682H268.954Z" fill="#28345A"/>
<path fill-rule="evenodd" clip-rule="evenodd" d="M254.319 291.953L459.001 277L254.319 262.047L254.319 262L254.001 262.023L253.683 262L253.683 262.046L49.0009 277L253.683 291.953L253.683 292L254.001 291.977L254.319 292L254.319 291.953Z" fill="#28345A"/>
<path fill-rule="evenodd" clip-rule="evenodd" d="M269.092 287.716L379.128 156.532L247.945 266.569L247.912 266.536L247.74 266.74L247.537 266.911L247.569 266.944L137.533 398.127L268.717 288.091L268.75 288.124L268.922 287.919L269.125 287.749L269.092 287.716Z" fill="#28345A" fill-opacity="0.6"/>
<path fill-rule="evenodd" clip-rule="evenodd" d="M243.924 283.453L375.107 393.489L265.071 262.305L265.104 262.272L264.9 262.101L264.729 261.897L264.696 261.93L133.513 151.894L243.549 283.078L243.516 283.111L243.72 283.282L243.891 283.486L243.924 283.453Z" fill="#28345A" fill-opacity="0.6"/>
<circle cx="254.501" cy="273.5" r="120.5" fill="white" stroke="#E7A018" stroke-width="10"/>
<path d="M258.402 65H255.901L251.864 57.9795H251.807C251.887 59.2194 251.927 60.1038 251.927 60.6328V65H250.169V55.7197H252.651L256.682 62.6704H256.726C256.663 61.4644 256.631 60.6117 256.631 60.1123V55.7197H258.402V65Z" fill="#28345A"/>
<path d="M255.647 489.423C255.647 490.261 255.344 490.921 254.739 491.403C254.138 491.886 253.3 492.127 252.226 492.127C251.235 492.127 250.359 491.941 249.598 491.568V489.74C250.224 490.02 250.753 490.216 251.185 490.331C251.62 490.445 252.018 490.502 252.378 490.502C252.81 490.502 253.14 490.419 253.368 490.254C253.601 490.089 253.717 489.844 253.717 489.518C253.717 489.336 253.667 489.175 253.565 489.036C253.463 488.892 253.313 488.754 253.114 488.623C252.92 488.492 252.52 488.282 251.915 487.995C251.347 487.728 250.922 487.472 250.639 487.227C250.355 486.981 250.129 486.695 249.959 486.37C249.79 486.044 249.706 485.663 249.706 485.227C249.706 484.406 249.983 483.761 250.537 483.291C251.096 482.821 251.866 482.586 252.848 482.586C253.33 482.586 253.789 482.644 254.225 482.758C254.665 482.872 255.124 483.033 255.603 483.24L254.968 484.77C254.473 484.567 254.062 484.425 253.736 484.345C253.415 484.264 253.097 484.224 252.784 484.224C252.412 484.224 252.126 484.311 251.927 484.484C251.728 484.658 251.629 484.884 251.629 485.164C251.629 485.337 251.669 485.489 251.75 485.621C251.83 485.748 251.957 485.872 252.13 485.995C252.308 486.114 252.725 486.329 253.381 486.643C254.248 487.057 254.843 487.474 255.165 487.893C255.486 488.308 255.647 488.818 255.647 489.423Z" fill="#28345A"/>
<path d="M46.208 281H43.9673L42.7104 276.125C42.6639 275.951 42.5835 275.594 42.4692 275.052C42.3592 274.506 42.2957 274.14 42.2788 273.954C42.2534 274.183 42.1899 274.551 42.0884 275.059C41.9868 275.562 41.9085 275.922 41.8535 276.138L40.603 281H38.3687L36.001 271.72H37.937L39.124 276.785C39.3314 277.72 39.4816 278.531 39.5747 279.216C39.6001 278.975 39.6572 278.603 39.7461 278.099C39.8392 277.591 39.9259 277.198 40.0063 276.918L41.3584 271.72H43.2183L44.5703 276.918C44.6296 277.151 44.7036 277.507 44.7925 277.985C44.8813 278.463 44.9491 278.874 44.9956 279.216C45.0379 278.886 45.1056 278.476 45.1987 277.985C45.2918 277.49 45.3765 277.09 45.4526 276.785L46.6333 271.72H48.5693L46.208 281Z" fill="#28345A"/>
<path d="M125.674 145.49L124.45 146.714L119.037 145.254L119.009 145.282C119.655 145.849 120.108 146.262 120.367 146.521L122.505 148.659L121.644 149.52L117.101 144.977L118.316 143.762L123.692 145.191L123.713 145.17C123.092 144.61 122.659 144.208 122.414 143.964L120.264 141.814L121.131 140.947L125.674 145.49ZM131.246 139.918L130.149 141.015L127.147 139.244C127.039 139.182 126.825 139.046 126.504 138.837C126.183 138.623 125.972 138.475 125.873 138.392C125.972 138.517 126.122 138.728 126.32 139.026C126.517 139.323 126.655 139.537 126.734 139.67L128.502 142.662L127.408 143.756L121.706 140.372L122.654 139.424L125.715 141.323C126.274 141.679 126.744 142.002 127.125 142.292C127.02 142.162 126.865 141.951 126.662 141.661C126.459 141.367 126.309 141.132 126.212 140.956L124.329 137.749L125.239 136.839L128.446 138.722C128.589 138.807 128.799 138.945 129.077 139.135C129.354 139.326 129.588 139.494 129.779 139.639C129.638 139.456 129.47 139.222 129.276 138.936C129.079 138.648 128.924 138.411 128.813 138.225L126.911 135.167L127.859 134.219L131.246 139.918Z" fill="#28345A" fill-opacity="0.6"/>
<path d="M385.31 148.673L384.086 147.449L385.546 142.036L385.518 142.008C384.951 142.654 384.538 143.107 384.279 143.366L382.141 145.504L381.28 144.643L385.823 140.1L387.038 141.315L385.609 146.691L385.63 146.712C386.19 146.091 386.592 145.658 386.836 145.413L388.986 143.263L389.853 144.13L385.31 148.673ZM389.073 152.436L386.457 149.82L391 145.277L393.616 147.893L392.827 148.682L391.174 147.029L390.176 148.027L391.715 149.565L390.925 150.354L389.387 148.816L388.216 149.988L389.869 151.641L389.073 152.436Z" fill="#28345A" fill-opacity="0.6"/>
<path d="M385.064 402.863C385.474 403.273 385.649 403.745 385.589 404.277C385.531 404.807 385.239 405.336 384.713 405.862C384.228 406.347 383.708 406.684 383.153 406.875L382.258 405.98C382.701 405.81 383.057 405.647 383.324 405.492C383.593 405.335 383.816 405.168 383.992 404.992C384.203 404.78 384.324 404.578 384.355 404.386C384.389 404.191 384.325 404.014 384.166 403.854C384.077 403.765 383.973 403.711 383.855 403.693C383.735 403.672 383.594 403.678 383.433 403.711C383.273 403.743 382.975 403.836 382.538 403.991C382.129 404.138 381.796 404.221 381.537 404.24C381.278 404.258 381.027 404.229 380.785 404.153C380.543 404.076 380.315 403.931 380.101 403.718C379.699 403.316 379.519 402.864 379.561 402.363C379.604 401.859 379.866 401.367 380.347 400.887C380.583 400.651 380.836 400.454 381.105 400.296C381.376 400.137 381.68 399.991 382.016 399.858L382.454 400.918C382.112 401.061 381.842 401.192 381.643 401.313C381.446 401.431 381.271 401.566 381.117 401.72C380.935 401.902 380.838 402.084 380.825 402.267C380.813 402.449 380.875 402.608 381.012 402.745C381.097 402.83 381.191 402.885 381.295 402.91C381.396 402.933 381.519 402.932 381.664 402.907C381.809 402.878 382.119 402.779 382.594 402.611C383.221 402.39 383.716 402.303 384.079 402.35C384.439 402.396 384.768 402.567 385.064 402.863ZM389.765 400.685L387.149 403.301L382.606 398.758L385.222 396.142L386.012 396.931L384.359 398.584L385.356 399.582L386.894 398.044L387.683 398.833L386.145 400.371L387.317 401.542L388.97 399.889L389.765 400.685Z" fill="#28345A" fill-opacity="0.6"/>
<path d="M127.62 408.068L126.523 406.971L128.294 403.969C128.356 403.861 128.492 403.647 128.701 403.326C128.915 403.005 129.063 402.795 129.146 402.695C129.021 402.795 128.81 402.944 128.512 403.143C128.216 403.339 128.001 403.477 127.869 403.556L124.876 405.324L123.782 404.23L127.166 398.528L128.114 399.476L126.215 402.537C125.859 403.096 125.536 403.566 125.246 403.947C125.376 403.842 125.587 403.687 125.877 403.484C126.171 403.281 126.406 403.131 126.582 403.034L129.789 401.151L130.699 402.061L128.816 405.268C128.731 405.411 128.594 405.621 128.403 405.899C128.212 406.176 128.045 406.41 127.9 406.601C128.082 406.46 128.316 406.292 128.602 406.098C128.89 405.901 129.127 405.747 129.314 405.635L132.371 403.733L133.319 404.681L127.62 408.068ZM133.291 411.216C132.881 411.626 132.41 411.801 131.877 411.741C131.347 411.683 130.819 411.391 130.292 410.864C129.808 410.38 129.47 409.86 129.279 409.305L130.174 408.41C130.344 408.853 130.507 409.208 130.662 409.475C130.82 409.745 130.986 409.967 131.162 410.144C131.374 410.355 131.576 410.476 131.768 410.507C131.963 410.54 132.14 410.477 132.3 410.318C132.389 410.228 132.443 410.125 132.461 410.007C132.482 409.887 132.476 409.746 132.443 409.584C132.412 409.425 132.318 409.126 132.163 408.689C132.016 408.281 131.933 407.948 131.914 407.689C131.896 407.43 131.925 407.179 132.001 406.937C132.078 406.694 132.223 406.466 132.436 406.253C132.838 405.851 133.29 405.671 133.791 405.712C134.295 405.756 134.787 406.018 135.267 406.499C135.503 406.735 135.7 406.987 135.858 407.257C136.017 407.528 136.163 407.832 136.296 408.167L135.236 408.605C135.093 408.264 134.962 407.993 134.842 407.794C134.723 407.598 134.588 407.422 134.435 407.269C134.252 407.087 134.07 406.99 133.888 406.977C133.705 406.965 133.546 407.027 133.409 407.164C133.324 407.248 133.269 407.343 133.244 407.446C133.222 407.548 133.223 407.671 133.247 407.816C133.276 407.961 133.375 408.271 133.543 408.745C133.764 409.373 133.851 409.868 133.804 410.231C133.758 410.591 133.587 410.919 133.291 411.216Z" fill="#28345A" fill-opacity="0.6"/>
<path d="M472.514 281H467.169V271.72H472.514V273.332H469.137V275.37H472.279V276.982H469.137V279.375H472.514V281Z" fill="#28345A"/>
<circle cx="79.501" cy="487.5" r="6" stroke="#28345A" stroke-opacity="0.6" stroke-width="3"/>
<circle cx="79.501" cy="501.5" r="2.5" fill="#28345A" fill-opacity="0.6"/>
<circle cx="65.501" cy="479.5" r="2.5" fill="#28345A" fill-opacity="0.6"/>
<circle cx="93.501" cy="479.5" r="2.5" fill="#28345A" fill-opacity="0.6"/>
<path fill-rule="evenodd" clip-rule="evenodd" d="M451.001 341.88C451.001 342.153 450.966 342.42 450.901 342.678C452.197 343.691 453.001 345.102 453.001 346.664C453.001 346.934 452.977 347.2 452.93 347.46C453.611 348.399 454.001 349.488 454.001 350.65C454.001 353.903 450.947 356.587 447.001 356.98V359.421H450.001V361.016H447.001H445.001V359.421V356.98C441.055 356.587 438.001 353.903 438.001 350.65C438.001 349.488 438.391 348.399 439.072 347.46C439.025 347.2 439.001 346.934 439.001 346.664C439.001 345.102 439.805 343.691 441.101 342.678C441.035 342.42 441.001 342.153 441.001 341.88C441.001 339.678 443.24 337.893 446.001 337.893C448.762 337.893 451.001 339.678 451.001 341.88Z" fill="#28345A" fill-opacity="0.6"/>
<circle cx="438.501" cy="34.5" r="6" stroke="#28345A" stroke-opacity="0.6" stroke-width="3"/>
<circle cx="438.501" cy="48.5" r="2.5" fill="#28345A" fill-opacity="0.6"/>
<circle cx="424.501" cy="26.5" r="2.5" fill="#28345A" fill-opacity="0.6"/>
<circle cx="452.501" cy="26.5" r="2.5" fill="#28345A" fill-opacity="0.6"/>
<circle cx="563.501" cy="289.5" r="6" stroke="#28345A" stroke-opacity="0.6" stroke-width="3"/>
<circle cx="563.501" cy="303.5" r="2.5" fill="#28345A" fill-opacity="0.6"/>
<circle cx="549.501" cy="281.5" r="2.5" fill="#28345A" fill-opacity="0.6"/>
<circle cx="577.501" cy="281.5" r="2.5" fill="#28345A" fill-opacity="0.6"/>
<path fill-rule="evenodd" clip-rule="evenodd" d="M13.001 4.91165C13.001 5.18132 12.9665 5.44465 12.9008 5.69907C14.1968 6.69842 15.001 8.09107 15.001 9.63147C15.001 9.89828 14.9769 10.1607 14.9302 10.4173C15.6112 11.3431 16.001 12.4179 16.001 13.5644C16.001 16.7735 12.9473 19.4215 9.00098 19.8086V22.2173H12.001V23.7905H7.00098V23.7905V22.2173V19.8086C3.05467 19.4215 0.000976562 16.7735 0.000976562 13.5644C0.000976562 12.4179 0.390743 11.3431 1.07173 10.4173C1.0251 10.1607 1.00098 9.89828 1.00098 9.63147C1.00098 8.09107 1.80511 6.69842 3.1012 5.69907C3.03548 5.44465 3.00098 5.18132 3.00098 4.91165C3.00098 2.73944 5.23955 0.978516 8.00098 0.978516C10.7624 0.978516 13.001 2.73944 13.001 4.91165Z" fill="#28345A" fill-opacity="0.6"/>
<path d="M195.996 247V221.84L199.396 225.12H190.796V219H203.916V247H195.996ZM212.367 247L223.287 221.92L225.407 225.28H211.207L214.447 221.64V229.6H207.687V219H230.887V223.96L221.007 247H212.367ZM244.041 247L244.361 240.8C244.547 240.827 244.721 240.853 244.881 240.88C245.041 240.88 245.187 240.88 245.321 240.88C245.987 240.88 246.507 240.72 246.881 240.4C247.281 240.053 247.574 239.587 247.761 239C247.974 238.413 248.121 237.733 248.201 236.96C248.307 236.16 248.374 235.293 248.401 234.36L248.721 225.32H268.321V247H260.721V229.64L262.401 231.36H253.721L255.321 229.56L255.081 234.68C255.001 236.627 254.827 238.4 254.561 240C254.321 241.573 253.934 242.92 253.401 244.04C252.867 245.16 252.134 246.027 251.201 246.64C250.294 247.227 249.134 247.52 247.721 247.52C247.214 247.52 246.641 247.467 246.001 247.36C245.387 247.28 244.734 247.16 244.041 247ZM284.588 247.36C282.028 247.36 279.788 246.88 277.868 245.92C275.975 244.933 274.495 243.6 273.428 241.92C272.388 240.213 271.868 238.28 271.868 236.12C271.868 233.96 272.375 232.04 273.388 230.36C274.428 228.653 275.855 227.333 277.668 226.4C279.481 225.44 281.521 224.96 283.788 224.96C285.921 224.96 287.868 225.4 289.628 226.28C291.388 227.133 292.788 228.4 293.828 230.08C294.868 231.76 295.388 233.8 295.388 236.2C295.388 236.467 295.375 236.773 295.348 237.12C295.321 237.467 295.295 237.787 295.268 238.08H278.108V234.08H291.228L288.348 235.2C288.375 234.213 288.188 233.36 287.788 232.64C287.415 231.92 286.881 231.36 286.188 230.96C285.521 230.56 284.735 230.36 283.828 230.36C282.921 230.36 282.121 230.56 281.428 230.96C280.761 231.36 280.241 231.933 279.868 232.68C279.495 233.4 279.308 234.253 279.308 235.24V236.4C279.308 237.467 279.521 238.387 279.948 239.16C280.401 239.933 281.041 240.533 281.868 240.96C282.695 241.36 283.681 241.56 284.828 241.56C285.895 241.56 286.801 241.413 287.548 241.12C288.321 240.8 289.081 240.32 289.828 239.68L293.828 243.84C292.788 244.987 291.508 245.867 289.988 246.48C288.468 247.067 286.668 247.36 284.588 247.36ZM303.542 247V229.68L305.182 231.36H296.542V225.32H318.062V231.36H309.422L311.102 229.68V247H303.542Z" fill="#222723"/>
<path d="M202.057 281H200.095V276.995H196.42V281H194.452V271.72H196.42V275.357H200.095V271.72H202.057V281ZM208.76 281L208.385 280.035H208.334C208.009 280.446 207.672 280.731 207.325 280.892C206.982 281.049 206.534 281.127 205.979 281.127C205.298 281.127 204.761 280.932 204.367 280.543C203.978 280.154 203.783 279.599 203.783 278.88C203.783 278.127 204.046 277.572 204.57 277.217C205.099 276.857 205.895 276.658 206.957 276.62L208.188 276.582V276.271C208.188 275.552 207.82 275.192 207.084 275.192C206.517 275.192 205.85 275.363 205.084 275.706L204.443 274.398C205.26 273.971 206.166 273.757 207.16 273.757C208.112 273.757 208.842 273.965 209.35 274.379C209.858 274.794 210.112 275.425 210.112 276.271V281H208.76ZM208.188 277.712L207.439 277.737C206.877 277.754 206.458 277.856 206.183 278.042C205.908 278.228 205.77 278.512 205.77 278.893C205.77 279.438 206.083 279.711 206.709 279.711C207.158 279.711 207.516 279.582 207.782 279.324C208.053 279.066 208.188 278.723 208.188 278.296V277.712ZM222.68 281H212.111V273.903H214.047V279.546H216.428V273.903H218.364V279.546H220.744V273.903H222.68V281ZM229.637 277.439C229.637 278.141 229.751 278.673 229.98 279.032C230.213 279.392 230.589 279.572 231.11 279.572C231.626 279.572 231.996 279.394 232.221 279.039C232.449 278.679 232.563 278.146 232.563 277.439C232.563 276.736 232.449 276.21 232.221 275.858C231.992 275.507 231.618 275.332 231.097 275.332C230.581 275.332 230.208 275.507 229.98 275.858C229.751 276.205 229.637 276.732 229.637 277.439ZM234.544 277.439C234.544 278.594 234.239 279.498 233.63 280.149C233.021 280.801 232.172 281.127 231.084 281.127C230.403 281.127 229.802 280.979 229.282 280.683C228.761 280.382 228.361 279.953 228.082 279.394C227.803 278.835 227.663 278.184 227.663 277.439C227.663 276.279 227.966 275.378 228.571 274.735C229.176 274.092 230.027 273.77 231.123 273.77C231.804 273.77 232.405 273.918 232.925 274.214C233.446 274.511 233.846 274.936 234.125 275.49C234.404 276.045 234.544 276.694 234.544 277.439ZM242.593 273.903V281H240.65V275.357H238.08V281H236.144V273.903H242.593ZM246.56 276.646H247.493C248.576 276.646 249.378 276.819 249.899 277.166C250.419 277.513 250.68 278.038 250.68 278.74C250.68 279.489 250.419 280.054 249.899 280.435C249.378 280.812 248.6 281 247.563 281H244.624V273.903H246.56V276.646ZM248.744 278.766C248.744 278.491 248.634 278.292 248.414 278.169C248.194 278.046 247.866 277.985 247.43 277.985H246.56V279.661H247.455C248.314 279.661 248.744 279.362 248.744 278.766ZM253.644 281H251.708V273.903H253.644V281ZM261.553 273.903V275.357H259.23V281H257.294V275.357H254.964V273.903H261.553ZM270.154 281.127C269.321 281.127 268.667 280.824 268.193 280.219H268.091C268.159 280.812 268.193 281.154 268.193 281.248V284.123H266.257V273.903H267.831L268.104 274.824H268.193C268.646 274.121 269.316 273.77 270.205 273.77C271.043 273.77 271.699 274.094 272.173 274.741C272.647 275.389 272.884 276.288 272.884 277.439C272.884 278.196 272.772 278.854 272.547 279.413C272.327 279.972 272.012 280.397 271.602 280.689C271.191 280.981 270.709 281.127 270.154 281.127ZM269.583 275.319C269.105 275.319 268.756 275.467 268.536 275.763C268.316 276.055 268.201 276.54 268.193 277.217V277.426C268.193 278.188 268.305 278.734 268.529 279.064C268.758 279.394 269.118 279.559 269.608 279.559C270.476 279.559 270.91 278.844 270.91 277.414C270.91 276.715 270.802 276.193 270.586 275.846C270.374 275.494 270.04 275.319 269.583 275.319ZM278.99 281L278.616 280.035H278.565C278.239 280.446 277.903 280.731 277.556 280.892C277.213 281.049 276.764 281.127 276.21 281.127C275.529 281.127 274.991 280.932 274.598 280.543C274.208 280.154 274.014 279.599 274.014 278.88C274.014 278.127 274.276 277.572 274.801 277.217C275.33 276.857 276.125 276.658 277.188 276.62L278.419 276.582V276.271C278.419 275.552 278.051 275.192 277.314 275.192C276.747 275.192 276.081 275.363 275.315 275.706L274.674 274.398C275.491 273.971 276.396 273.757 277.391 273.757C278.343 273.757 279.073 273.965 279.581 274.379C280.088 274.794 280.342 275.425 280.342 276.271V281H278.99ZM278.419 277.712L277.67 277.737C277.107 277.754 276.688 277.856 276.413 278.042C276.138 278.228 276 278.512 276 278.893C276 279.438 276.314 279.711 276.94 279.711C277.389 279.711 277.746 279.582 278.013 279.324C278.284 279.066 278.419 278.723 278.419 278.296V277.712ZM281.91 276.747C281.91 275.118 282.219 273.882 282.837 273.04C283.459 272.194 284.428 271.658 285.744 271.434C286.383 271.324 287.337 271.184 288.607 271.015L288.829 272.704C288.279 272.767 287.304 272.903 285.903 273.11C285.37 273.194 284.972 273.321 284.709 273.491C284.447 273.66 284.25 273.901 284.119 274.214C283.992 274.528 283.914 274.944 283.884 275.465H283.979C284.204 275.118 284.5 274.851 284.868 274.665C285.236 274.479 285.632 274.386 286.055 274.386C286.931 274.386 287.612 274.654 288.099 275.192C288.586 275.725 288.829 276.491 288.829 277.49C288.829 278.641 288.52 279.536 287.902 280.175C287.289 280.81 286.44 281.127 285.357 281.127C284.274 281.127 283.427 280.74 282.818 279.965C282.213 279.187 281.91 278.114 281.91 276.747ZM285.471 279.559C286.389 279.559 286.849 278.926 286.849 277.661C286.849 276.43 286.434 275.814 285.604 275.814C285.376 275.814 285.147 275.867 284.919 275.973C284.695 276.078 284.487 276.218 284.297 276.392C284.111 276.561 283.973 276.732 283.884 276.906C283.884 277.765 284.022 278.423 284.297 278.88C284.572 279.333 284.963 279.559 285.471 279.559ZM291.971 277.439C291.971 278.141 292.085 278.673 292.314 279.032C292.547 279.392 292.923 279.572 293.444 279.572C293.96 279.572 294.33 279.394 294.555 279.039C294.783 278.679 294.897 278.146 294.897 277.439C294.897 276.736 294.783 276.21 294.555 275.858C294.326 275.507 293.952 275.332 293.431 275.332C292.915 275.332 292.542 275.507 292.314 275.858C292.085 276.205 291.971 276.732 291.971 277.439ZM296.878 277.439C296.878 278.594 296.573 279.498 295.964 280.149C295.354 280.801 294.506 281.127 293.418 281.127C292.737 281.127 292.136 280.979 291.616 280.683C291.095 280.382 290.695 279.953 290.416 279.394C290.137 278.835 289.997 278.184 289.997 277.439C289.997 276.279 290.3 275.378 290.905 274.735C291.51 274.092 292.361 273.77 293.457 273.77C294.138 273.77 294.739 273.918 295.259 274.214C295.78 274.511 296.18 274.936 296.459 275.49C296.738 276.045 296.878 276.694 296.878 277.439ZM304.349 273.903V275.357H302.026V281H300.09V275.357H297.76V273.903H304.349ZM307.612 276.646H308.545C309.628 276.646 310.43 276.819 310.951 277.166C311.471 277.513 311.731 278.038 311.731 278.74C311.731 279.489 311.471 280.054 310.951 280.435C310.43 280.812 309.652 281 308.615 281H305.676V273.903H307.612V276.646ZM309.795 278.766C309.795 278.491 309.685 278.292 309.465 278.169C309.245 278.046 308.917 277.985 308.481 277.985H307.612V279.661H308.507C309.366 279.661 309.795 279.362 309.795 278.766ZM314.696 281H312.76V273.903H314.696V281ZM189.952 293.763C189.952 294.144 189.831 294.47 189.59 294.741C189.353 295.007 189.002 295.179 188.536 295.255V295.306C189.04 295.365 189.438 295.538 189.729 295.826C190.026 296.11 190.174 296.461 190.174 296.88C190.174 297.57 189.903 298.097 189.361 298.46C188.82 298.82 188.045 299 187.038 299H183.401V291.903H187.038C188.011 291.903 188.739 292.062 189.222 292.379C189.708 292.693 189.952 293.154 189.952 293.763ZM188.168 296.778C188.168 296.499 188.06 296.298 187.844 296.175C187.628 296.048 187.305 295.985 186.873 295.985H185.337V297.661H186.911C187.322 297.661 187.633 297.584 187.844 297.432C188.06 297.276 188.168 297.058 188.168 296.778ZM187.99 293.916C187.99 293.484 187.647 293.268 186.962 293.268H185.337V294.671H186.74C187.15 294.671 187.461 294.612 187.673 294.493C187.884 294.375 187.99 294.182 187.99 293.916ZM199.746 291.903H201.879L199.067 295.306L202.126 299H199.93L197.029 295.401V299H195.093V291.903H197.029V295.35L199.746 291.903ZM207.649 299L207.274 298.035H207.224C206.898 298.446 206.561 298.731 206.214 298.892C205.872 299.049 205.423 299.127 204.869 299.127C204.187 299.127 203.65 298.932 203.256 298.543C202.867 298.154 202.672 297.599 202.672 296.88C202.672 296.127 202.935 295.572 203.459 295.217C203.988 294.857 204.784 294.658 205.846 294.62L207.078 294.582V294.271C207.078 293.552 206.709 293.192 205.973 293.192C205.406 293.192 204.74 293.363 203.974 293.706L203.333 292.398C204.149 291.971 205.055 291.757 206.049 291.757C207.001 291.757 207.731 291.965 208.239 292.379C208.747 292.794 209.001 293.425 209.001 294.271V299H207.649ZM207.078 295.712L206.329 295.737C205.766 295.754 205.347 295.856 205.072 296.042C204.797 296.228 204.659 296.512 204.659 296.893C204.659 297.438 204.972 297.711 205.599 297.711C206.047 297.711 206.405 297.582 206.671 297.324C206.942 297.066 207.078 296.723 207.078 296.296V295.712ZM215.444 297.584V293.357H213.99C213.884 294.144 213.738 294.891 213.552 295.598C213.37 296.304 213.116 296.967 212.791 297.584H215.444ZM218.421 301.545H216.682V299H211.908V301.545H210.169V297.584H210.766C211.172 296.954 211.513 296.158 211.788 295.198C212.063 294.237 212.255 293.139 212.365 291.903H217.38V297.584H218.421V301.545ZM224.14 299L223.766 298.035H223.715C223.389 298.446 223.053 298.731 222.706 298.892C222.363 299.049 221.914 299.127 221.36 299.127C220.679 299.127 220.141 298.932 219.748 298.543C219.358 298.154 219.164 297.599 219.164 296.88C219.164 296.127 219.426 295.572 219.951 295.217C220.48 294.857 221.275 294.658 222.337 294.62L223.569 294.582V294.271C223.569 293.552 223.201 293.192 222.464 293.192C221.897 293.192 221.231 293.363 220.465 293.706L219.824 292.398C220.64 291.971 221.546 291.757 222.541 291.757C223.493 291.757 224.223 291.965 224.73 292.379C225.238 292.794 225.492 293.425 225.492 294.271V299H224.14ZM223.569 295.712L222.82 295.737C222.257 295.754 221.838 295.856 221.563 296.042C221.288 296.228 221.15 296.512 221.15 296.893C221.15 297.438 221.464 297.711 222.09 297.711C222.538 297.711 222.896 297.582 223.163 297.324C223.433 297.066 223.569 296.723 223.569 296.296V295.712ZM230.374 299.127C228.165 299.127 227.06 297.915 227.06 295.49C227.06 294.284 227.361 293.363 227.961 292.729C228.562 292.09 229.424 291.77 230.545 291.77C231.366 291.77 232.102 291.931 232.754 292.252L232.183 293.75C231.878 293.628 231.594 293.528 231.332 293.452C231.07 293.372 230.807 293.332 230.545 293.332C229.538 293.332 229.034 294.047 229.034 295.477C229.034 296.865 229.538 297.559 230.545 297.559C230.917 297.559 231.262 297.51 231.58 297.413C231.897 297.312 232.214 297.155 232.532 296.943V298.6C232.219 298.799 231.901 298.937 231.58 299.013C231.262 299.089 230.86 299.127 230.374 299.127ZM240.054 291.903V293.357H237.73V299H235.794V293.357H233.465V291.903H240.054ZM245.278 299.127C244.444 299.127 243.79 298.824 243.316 298.219H243.215C243.283 298.812 243.316 299.154 243.316 299.248V302.123H241.38V291.903H242.955L243.228 292.824H243.316C243.769 292.121 244.44 291.77 245.329 291.77C246.167 291.77 246.822 292.094 247.296 292.741C247.77 293.389 248.007 294.288 248.007 295.439C248.007 296.196 247.895 296.854 247.671 297.413C247.451 297.972 247.136 298.397 246.725 298.689C246.315 298.981 245.832 299.127 245.278 299.127ZM244.707 293.319C244.228 293.319 243.879 293.467 243.659 293.763C243.439 294.055 243.325 294.54 243.316 295.217V295.426C243.316 296.188 243.429 296.734 243.653 297.064C243.881 297.394 244.241 297.559 244.732 297.559C245.599 297.559 246.033 296.844 246.033 295.414C246.033 294.715 245.925 294.193 245.709 293.846C245.498 293.494 245.164 293.319 244.707 293.319ZM251.149 295.439C251.149 296.141 251.264 296.673 251.492 297.032C251.725 297.392 252.102 297.572 252.622 297.572C253.138 297.572 253.509 297.394 253.733 297.039C253.961 296.679 254.076 296.146 254.076 295.439C254.076 294.736 253.961 294.21 253.733 293.858C253.504 293.507 253.13 293.332 252.609 293.332C252.093 293.332 251.721 293.507 251.492 293.858C251.264 294.205 251.149 294.732 251.149 295.439ZM256.056 295.439C256.056 296.594 255.751 297.498 255.142 298.149C254.533 298.801 253.684 299.127 252.597 299.127C251.915 299.127 251.314 298.979 250.794 298.683C250.273 298.382 249.874 297.953 249.594 297.394C249.315 296.835 249.175 296.184 249.175 295.439C249.175 294.279 249.478 293.378 250.083 292.735C250.688 292.092 251.539 291.77 252.635 291.77C253.316 291.77 253.917 291.918 254.438 292.214C254.958 292.511 255.358 292.936 255.637 293.49C255.917 294.045 256.056 294.694 256.056 295.439ZM264.207 293.763C264.207 294.144 264.086 294.47 263.845 294.741C263.608 295.007 263.257 295.179 262.791 295.255V295.306C263.295 295.365 263.692 295.538 263.984 295.826C264.281 296.11 264.429 296.461 264.429 296.88C264.429 297.57 264.158 298.097 263.616 298.46C263.075 298.82 262.3 299 261.293 299H257.656V291.903H261.293C262.266 291.903 262.994 292.062 263.477 292.379C263.963 292.693 264.207 293.154 264.207 293.763ZM262.423 296.778C262.423 296.499 262.315 296.298 262.099 296.175C261.883 296.048 261.56 295.985 261.128 295.985H259.592V297.661H261.166C261.576 297.661 261.888 297.584 262.099 297.432C262.315 297.276 262.423 297.058 262.423 296.778ZM262.245 293.916C262.245 293.484 261.902 293.268 261.217 293.268H259.592V294.671H260.995C261.405 294.671 261.716 294.612 261.928 294.493C262.139 294.375 262.245 294.182 262.245 293.916ZM267.514 295.439C267.514 296.141 267.628 296.673 267.856 297.032C268.089 297.392 268.466 297.572 268.986 297.572C269.503 297.572 269.873 297.394 270.097 297.039C270.326 296.679 270.44 296.146 270.44 295.439C270.44 294.736 270.326 294.21 270.097 293.858C269.869 293.507 269.494 293.332 268.974 293.332C268.457 293.332 268.085 293.507 267.856 293.858C267.628 294.205 267.514 294.732 267.514 295.439ZM272.42 295.439C272.42 296.594 272.116 297.498 271.506 298.149C270.897 298.801 270.049 299.127 268.961 299.127C268.28 299.127 267.679 298.979 267.158 298.683C266.638 298.382 266.238 297.953 265.958 297.394C265.679 296.835 265.54 296.184 265.54 295.439C265.54 294.279 265.842 293.378 266.447 292.735C267.052 292.092 267.903 291.77 268.999 291.77C269.68 291.77 270.281 291.918 270.802 292.214C271.322 292.511 271.722 292.936 272.001 293.49C272.281 294.045 272.42 294.694 272.42 295.439ZM275.893 291.903V294.709C275.893 295.005 275.844 295.729 275.747 296.88L279.022 291.903H281.352V299H279.479V296.169C279.479 295.665 279.521 294.954 279.606 294.036L276.343 299H274.02V291.903H275.893ZM280.78 288.85C280.7 289.641 280.402 290.219 279.885 290.583C279.369 290.943 278.624 291.123 277.651 291.123C276.648 291.123 275.905 290.949 275.423 290.602C274.945 290.255 274.676 289.671 274.617 288.85H276.35C276.379 289.286 276.487 289.593 276.673 289.771C276.864 289.944 277.202 290.031 277.689 290.031C278.116 290.031 278.434 289.936 278.641 289.745C278.853 289.55 278.982 289.252 279.028 288.85H280.78ZM289.648 299.127C287.439 299.127 286.334 297.915 286.334 295.49C286.334 294.284 286.635 293.363 287.236 292.729C287.837 292.09 288.698 291.77 289.819 291.77C290.64 291.77 291.377 291.931 292.028 292.252L291.457 293.75C291.152 293.628 290.869 293.528 290.606 293.452C290.344 293.372 290.082 293.332 289.819 293.332C288.812 293.332 288.309 294.047 288.309 295.477C288.309 296.865 288.812 297.559 289.819 297.559C290.192 297.559 290.537 297.51 290.854 297.413C291.171 297.312 291.489 297.155 291.806 296.943V298.6C291.493 298.799 291.176 298.937 290.854 299.013C290.537 299.089 290.135 299.127 289.648 299.127ZM298.643 291.865C299.827 291.963 300.756 292.329 301.429 292.963C302.102 293.598 302.438 294.428 302.438 295.452C302.438 296.497 302.106 297.335 301.442 297.965C300.778 298.592 299.844 298.953 298.643 299.051V302.123H296.846V299.051C295.649 298.941 294.711 298.566 294.034 297.927C293.361 297.284 293.025 296.459 293.025 295.452C293.025 294.381 293.351 293.537 294.002 292.919C294.654 292.297 295.602 291.946 296.846 291.865V289.123H298.643V291.865ZM295.018 295.452C295.018 296.048 295.181 296.535 295.507 296.912C295.833 297.284 296.279 297.508 296.846 297.584V293.319C296.3 293.391 295.858 293.621 295.52 294.011C295.185 294.4 295.018 294.88 295.018 295.452ZM300.452 295.452C300.452 294.893 300.293 294.423 299.976 294.042C299.658 293.657 299.214 293.425 298.643 293.344V297.584C299.205 297.508 299.648 297.282 299.969 296.905C300.291 296.529 300.452 296.044 300.452 295.452ZM306.983 293.147C306.573 293.147 306.251 293.279 306.019 293.541C305.786 293.799 305.653 294.167 305.619 294.646H308.335C308.327 294.167 308.202 293.799 307.961 293.541C307.72 293.279 307.394 293.147 306.983 293.147ZM307.256 299.127C306.114 299.127 305.221 298.812 304.578 298.181C303.934 297.551 303.613 296.658 303.613 295.502C303.613 294.313 303.909 293.395 304.501 292.748C305.098 292.096 305.921 291.77 306.971 291.77C307.974 291.77 308.754 292.056 309.313 292.627C309.872 293.198 310.151 293.987 310.151 294.995V295.934H305.574C305.595 296.484 305.758 296.914 306.063 297.223C306.368 297.532 306.795 297.686 307.345 297.686C307.773 297.686 308.177 297.642 308.558 297.553C308.938 297.464 309.336 297.322 309.751 297.127V298.625C309.412 298.795 309.051 298.92 308.666 299C308.28 299.085 307.811 299.127 307.256 299.127ZM315.623 299.127C314.789 299.127 314.135 298.824 313.661 298.219H313.56C313.627 298.812 313.661 299.154 313.661 299.248V302.123H311.725V291.903H313.299L313.572 292.824H313.661C314.114 292.121 314.785 291.77 315.673 291.77C316.511 291.77 317.167 292.094 317.641 292.741C318.115 293.389 318.352 294.288 318.352 295.439C318.352 296.196 318.24 296.854 318.016 297.413C317.796 297.972 317.48 298.397 317.07 298.689C316.659 298.981 316.177 299.127 315.623 299.127ZM315.051 293.319C314.573 293.319 314.224 293.467 314.004 293.763C313.784 294.055 313.67 294.54 313.661 295.217V295.426C313.661 296.188 313.773 296.734 313.998 297.064C314.226 297.394 314.586 297.559 315.077 297.559C315.944 297.559 316.378 296.844 316.378 295.414C316.378 294.715 316.27 294.193 316.054 293.846C315.843 293.494 315.508 293.319 315.051 293.319ZM322.891 293.147C322.48 293.147 322.159 293.279 321.926 293.541C321.693 293.799 321.56 294.167 321.526 294.646H324.243C324.234 294.167 324.109 293.799 323.868 293.541C323.627 293.279 323.301 293.147 322.891 293.147ZM323.164 299.127C322.021 299.127 321.128 298.812 320.485 298.181C319.842 297.551 319.52 296.658 319.52 295.502C319.52 294.313 319.816 293.395 320.409 292.748C321.005 292.096 321.828 291.77 322.878 291.77C323.881 291.77 324.662 292.056 325.22 292.627C325.779 293.198 326.058 293.987 326.058 294.995V295.934H321.481C321.503 296.484 321.666 296.914 321.97 297.223C322.275 297.532 322.702 297.686 323.252 297.686C323.68 297.686 324.084 297.642 324.465 297.553C324.846 297.464 325.243 297.322 325.658 297.127V298.625C325.32 298.795 324.958 298.92 324.573 299C324.188 299.085 323.718 299.127 323.164 299.127ZM184.543 308.903V311.709C184.543 312.005 184.495 312.729 184.397 313.88L187.673 308.903H190.002V316H188.13V313.169C188.13 312.665 188.172 311.954 188.257 311.036L184.994 316H182.671V308.903H184.543ZM198.299 316.127C196.09 316.127 194.985 314.915 194.985 312.49C194.985 311.284 195.286 310.363 195.887 309.729C196.488 309.09 197.349 308.77 198.47 308.77C199.291 308.77 200.028 308.931 200.679 309.252L200.108 310.75C199.803 310.628 199.52 310.528 199.257 310.452C198.995 310.372 198.733 310.332 198.47 310.332C197.463 310.332 196.959 311.047 196.959 312.477C196.959 313.865 197.463 314.559 198.47 314.559C198.843 314.559 199.188 314.51 199.505 314.413C199.822 314.312 200.14 314.155 200.457 313.943V315.6C200.144 315.799 199.826 315.937 199.505 316.013C199.188 316.089 198.785 316.127 198.299 316.127ZM207.293 308.865C208.478 308.963 209.407 309.329 210.08 309.963C210.753 310.598 211.089 311.428 211.089 312.452C211.089 313.497 210.757 314.335 210.093 314.965C209.428 315.592 208.495 315.953 207.293 316.051V319.123H205.497V316.051C204.299 315.941 203.362 315.566 202.685 314.927C202.012 314.284 201.676 313.459 201.676 312.452C201.676 311.381 202.002 310.537 202.653 309.919C203.305 309.297 204.253 308.946 205.497 308.865V306.123H207.293V308.865ZM203.669 312.452C203.669 313.048 203.832 313.535 204.158 313.912C204.484 314.284 204.93 314.508 205.497 314.584V310.319C204.951 310.391 204.509 310.621 204.17 311.011C203.836 311.4 203.669 311.88 203.669 312.452ZM209.103 312.452C209.103 311.893 208.944 311.423 208.626 311.042C208.309 310.657 207.865 310.425 207.293 310.344V314.584C207.856 314.508 208.299 314.282 208.62 313.905C208.942 313.529 209.103 313.044 209.103 312.452ZM215.634 310.147C215.224 310.147 214.902 310.279 214.669 310.541C214.437 310.799 214.303 311.167 214.27 311.646H216.986C216.978 311.167 216.853 310.799 216.612 310.541C216.371 310.279 216.045 310.147 215.634 310.147ZM215.907 316.127C214.765 316.127 213.872 315.812 213.229 315.181C212.585 314.551 212.264 313.658 212.264 312.502C212.264 311.313 212.56 310.395 213.152 309.748C213.749 309.096 214.572 308.77 215.622 308.77C216.625 308.77 217.405 309.056 217.964 309.627C218.522 310.198 218.802 310.987 218.802 311.995V312.934H214.225C214.246 313.484 214.409 313.914 214.714 314.223C215.019 314.532 215.446 314.686 215.996 314.686C216.424 314.686 216.828 314.642 217.208 314.553C217.589 314.464 217.987 314.322 218.402 314.127V315.625C218.063 315.795 217.701 315.92 217.316 316C216.931 316.085 216.462 316.127 215.907 316.127ZM224.273 316.127C223.44 316.127 222.786 315.824 222.312 315.219H222.21C222.278 315.812 222.312 316.154 222.312 316.248V319.123H220.376V308.903H221.95L222.223 309.824H222.312C222.765 309.121 223.436 308.77 224.324 308.77C225.162 308.77 225.818 309.094 226.292 309.741C226.766 310.389 227.003 311.288 227.003 312.439C227.003 313.196 226.891 313.854 226.667 314.413C226.446 314.972 226.131 315.397 225.721 315.689C225.31 315.981 224.828 316.127 224.273 316.127ZM223.702 310.319C223.224 310.319 222.875 310.467 222.655 310.763C222.435 311.055 222.32 311.54 222.312 312.217V312.426C222.312 313.188 222.424 313.734 222.648 314.064C222.877 314.394 223.237 314.559 223.728 314.559C224.595 314.559 225.029 313.844 225.029 312.414C225.029 311.715 224.921 311.193 224.705 310.846C224.493 310.494 224.159 310.319 223.702 310.319ZM231.542 310.147C231.131 310.147 230.809 310.279 230.577 310.541C230.344 310.799 230.211 311.167 230.177 311.646H232.894C232.885 311.167 232.76 310.799 232.519 310.541C232.278 310.279 231.952 310.147 231.542 310.147ZM231.814 316.127C230.672 316.127 229.779 315.812 229.136 315.181C228.493 314.551 228.171 313.658 228.171 312.502C228.171 311.313 228.467 310.395 229.06 309.748C229.656 309.096 230.479 308.77 231.529 308.77C232.532 308.77 233.312 309.056 233.871 309.627C234.43 310.198 234.709 310.987 234.709 311.995V312.934H230.132C230.153 313.484 230.316 313.914 230.621 314.223C230.926 314.532 231.353 314.686 231.903 314.686C232.331 314.686 232.735 314.642 233.116 314.553C233.497 314.464 233.894 314.322 234.309 314.127V315.625C233.971 315.795 233.609 315.92 233.224 316C232.839 316.085 232.369 316.127 231.814 316.127ZM241.533 308.903V311.709C241.533 312.005 241.484 312.729 241.387 313.88L244.662 308.903H246.992V316H245.119V313.169C245.119 312.665 245.161 311.954 245.246 311.036L241.983 316H239.66V308.903H241.533ZM250.965 308.903V311.633H253.669V308.903H255.605V316H253.669V313.074H250.965V316H249.029V308.903H250.965ZM261.395 312.35V308.903H263.197V312.35L265.724 308.903H267.723L265.108 312.306L267.971 316H265.901L263.197 312.401V316H261.395V312.401L258.69 316H256.621L259.484 312.306L256.869 308.903H258.868L261.395 312.35ZM271.925 310.147C271.515 310.147 271.193 310.279 270.96 310.541C270.728 310.799 270.594 311.167 270.561 311.646H273.277C273.269 311.167 273.144 310.799 272.903 310.541C272.662 310.279 272.336 310.147 271.925 310.147ZM272.198 316.127C271.056 316.127 270.163 315.812 269.52 315.181C268.876 314.551 268.555 313.658 268.555 312.502C268.555 311.313 268.851 310.395 269.443 309.748C270.04 309.096 270.863 308.77 271.913 308.77C272.916 308.77 273.696 309.056 274.255 309.627C274.813 310.198 275.093 310.987 275.093 311.995V312.934H270.516C270.537 313.484 270.7 313.914 271.005 314.223C271.31 314.532 271.737 314.686 272.287 314.686C272.715 314.686 273.119 314.642 273.5 314.553C273.88 314.464 274.278 314.322 274.693 314.127V315.625C274.354 315.795 273.993 315.92 273.607 316C273.222 316.085 272.753 316.127 272.198 316.127ZM278.603 308.903V311.633H281.307V308.903H283.243V316H281.307V313.074H278.603V316H276.667V308.903H278.603ZM288.213 310.147C287.803 310.147 287.481 310.279 287.249 310.541C287.016 310.799 286.882 311.167 286.849 311.646H289.565C289.557 311.167 289.432 310.799 289.191 310.541C288.95 310.279 288.624 310.147 288.213 310.147ZM288.486 316.127C287.344 316.127 286.451 315.812 285.808 315.181C285.164 314.551 284.843 313.658 284.843 312.502C284.843 311.313 285.139 310.395 285.731 309.748C286.328 309.096 287.151 308.77 288.201 308.77C289.204 308.77 289.984 309.056 290.543 309.627C291.102 310.198 291.381 310.987 291.381 311.995V312.934H286.804C286.825 313.484 286.988 313.914 287.293 314.223C287.598 314.532 288.025 314.686 288.575 314.686C289.003 314.686 289.407 314.642 289.788 314.553C290.168 314.464 290.566 314.322 290.981 314.127V315.625C290.642 315.795 290.281 315.92 289.896 316C289.51 316.085 289.041 316.127 288.486 316.127ZM296.853 316.127C296.019 316.127 295.365 315.824 294.891 315.219H294.79C294.857 315.812 294.891 316.154 294.891 316.248V319.123H292.955V308.903H294.529L294.802 309.824H294.891C295.344 309.121 296.015 308.77 296.903 308.77C297.741 308.77 298.397 309.094 298.871 309.741C299.345 310.389 299.582 311.288 299.582 312.439C299.582 313.196 299.47 313.854 299.246 314.413C299.026 314.972 298.71 315.397 298.3 315.689C297.889 315.981 297.407 316.127 296.853 316.127ZM296.281 310.319C295.803 310.319 295.454 310.467 295.234 310.763C295.014 311.055 294.9 311.54 294.891 312.217V312.426C294.891 313.188 295.003 313.734 295.228 314.064C295.456 314.394 295.816 314.559 296.307 314.559C297.174 314.559 297.608 313.844 297.608 312.414C297.608 311.715 297.5 311.193 297.284 310.846C297.073 310.494 296.738 310.319 296.281 310.319ZM303.118 308.903V311.633H305.822V308.903H307.758V316H305.822V313.074H303.118V316H301.182V308.903H303.118ZM311.725 311.646H312.658C313.742 311.646 314.543 311.819 315.064 312.166C315.584 312.513 315.845 313.038 315.845 313.74C315.845 314.489 315.584 315.054 315.064 315.435C314.543 315.812 313.765 316 312.728 316H309.789V308.903H311.725V311.646ZM313.909 313.766C313.909 313.491 313.799 313.292 313.579 313.169C313.359 313.046 313.031 312.985 312.595 312.985H311.725V314.661H312.62C313.479 314.661 313.909 314.362 313.909 313.766ZM318.809 316H316.873V308.903H318.809V316ZM322.3 312.375L320.015 308.903H322.211L323.589 311.163L324.979 308.903H327.175L324.865 312.375L327.283 316H325.081L323.589 313.569L322.091 316H319.895L322.3 312.375ZM218.592 326.903V329.709C218.592 330.005 218.544 330.729 218.446 331.88L221.722 326.903H224.051V334H222.179V331.169C222.179 330.665 222.221 329.954 222.306 329.036L219.043 334H216.72V326.903H218.592ZM227.854 329.633C228.586 329.633 229.104 329.574 229.409 329.455C229.718 329.337 229.872 329.148 229.872 328.89C229.872 328.662 229.76 328.49 229.536 328.376C229.311 328.262 228.941 328.205 228.425 328.205C228.099 328.205 227.729 328.245 227.314 328.325C226.903 328.406 226.529 328.516 226.19 328.655L225.619 327.303C226.123 327.113 226.611 326.977 227.085 326.897C227.559 326.812 228.088 326.77 228.672 326.77C229.557 326.77 230.266 326.939 230.799 327.278C231.332 327.616 231.599 328.076 231.599 328.655C231.599 329.455 231.127 329.976 230.183 330.217V330.28C230.763 330.424 231.175 330.629 231.421 330.896C231.671 331.158 231.795 331.503 231.795 331.931C231.795 332.362 231.656 332.745 231.376 333.08C231.097 333.414 230.693 333.672 230.164 333.854C229.635 334.036 229.013 334.127 228.298 334.127C227.113 334.127 226.203 333.981 225.568 333.689V332.089C225.932 332.259 226.33 332.392 226.762 332.489C227.198 332.587 227.619 332.635 228.025 332.635C228.655 332.635 229.127 332.565 229.44 332.426C229.754 332.282 229.91 332.079 229.91 331.816C229.91 331.529 229.745 331.317 229.415 331.182C229.085 331.042 228.577 330.972 227.892 330.972H227.143V329.633H227.854ZM235.249 329.646H236.182C237.265 329.646 238.067 329.819 238.587 330.166C239.108 330.513 239.368 331.038 239.368 331.74C239.368 332.489 239.108 333.054 238.587 333.435C238.067 333.812 237.288 334 236.251 334H233.312V326.903H235.249V329.646ZM237.432 331.766C237.432 331.491 237.322 331.292 237.102 331.169C236.882 331.046 236.554 330.985 236.118 330.985H235.249V332.661H236.144C237.003 332.661 237.432 332.362 237.432 331.766ZM242.333 334H240.396V326.903H242.333V334ZM247.252 334.127C245.043 334.127 243.938 332.915 243.938 330.49C243.938 329.284 244.239 328.363 244.84 327.729C245.441 327.09 246.302 326.77 247.423 326.77C248.244 326.77 248.981 326.931 249.632 327.252L249.061 328.75C248.756 328.628 248.473 328.528 248.21 328.452C247.948 328.372 247.686 328.332 247.423 328.332C246.416 328.332 245.913 329.047 245.913 330.477C245.913 331.865 246.416 332.559 247.423 332.559C247.796 332.559 248.141 332.51 248.458 332.413C248.775 332.312 249.093 332.155 249.41 331.943V333.6C249.097 333.799 248.78 333.937 248.458 334.013C248.141 334.089 247.739 334.127 247.252 334.127ZM255.713 326.903H257.846L255.034 330.306L258.094 334H255.897L252.997 330.401V334H251.061V326.903H252.997V330.35L255.713 326.903ZM263.616 334L263.242 333.035H263.191C262.865 333.446 262.529 333.731 262.182 333.892C261.839 334.049 261.39 334.127 260.836 334.127C260.155 334.127 259.617 333.932 259.224 333.543C258.834 333.154 258.64 332.599 258.64 331.88C258.64 331.127 258.902 330.572 259.427 330.217C259.956 329.857 260.751 329.658 261.813 329.62L263.045 329.582V329.271C263.045 328.552 262.677 328.192 261.94 328.192C261.373 328.192 260.707 328.363 259.941 328.706L259.3 327.398C260.117 326.971 261.022 326.757 262.017 326.757C262.969 326.757 263.699 326.965 264.207 327.379C264.714 327.794 264.968 328.425 264.968 329.271V334H263.616ZM263.045 330.712L262.296 330.737C261.733 330.754 261.314 330.856 261.039 331.042C260.764 331.228 260.626 331.512 260.626 331.893C260.626 332.438 260.94 332.711 261.566 332.711C262.014 332.711 262.372 332.582 262.639 332.324C262.91 332.066 263.045 331.723 263.045 331.296V330.712ZM268.904 326.903V329.633H271.608V326.903H273.544V334H271.608V331.074H268.904V334H266.968V326.903H268.904ZM277.448 326.903V329.709C277.448 330.005 277.399 330.729 277.302 331.88L280.577 326.903H282.907V334H281.034V331.169C281.034 330.665 281.076 329.954 281.161 329.036L277.898 334H275.575V326.903H277.448ZM286.817 326.903V329.709C286.817 330.005 286.768 330.729 286.671 331.88L289.946 326.903H292.276V334H290.403V331.169C290.403 330.665 290.446 329.954 290.53 329.036L287.268 334H284.944V326.903H286.817ZM291.705 323.85C291.624 324.641 291.326 325.219 290.81 325.583C290.293 325.943 289.549 326.123 288.575 326.123C287.572 326.123 286.83 325.949 286.347 325.602C285.869 325.255 285.6 324.671 285.541 323.85H287.274C287.304 324.286 287.411 324.593 287.598 324.771C287.788 324.944 288.127 325.031 288.613 325.031C289.041 325.031 289.358 324.936 289.565 324.745C289.777 324.55 289.906 324.252 289.953 323.85H291.705Z" fill="#222723"/>
</svg>
