<svg width="22" height="25" viewBox="0 0 22 25" fill="none" xmlns="http://www.w3.org/2000/svg">
<path d="M3.76049 16.7887C4.87038 19.1887 7.16804 19.9315 8.17814 20.003C7.37493 20.622 5.3669 21.9673 3.76049 22.3958C2.15407 22.8244 0.584154 23.0268 0 23.0744L1.16831 24.8601C1.78897 24.8363 3.47571 24.5101 5.25737 23.3958C7.48446 22.003 9.41946 20.6815 12.3402 17.7173C14.6768 15.3458 17.1108 10.5149 18.0357 8.39582C17.5854 9.97916 16.3198 13.753 14.8594 16.1815C13.399 18.6101 11.1111 20.9792 10.1497 21.8601C10.746 22.6101 12.5228 24.0601 14.8594 23.8601C17.7801 23.6101 20.7739 21.4673 21.7962 15.253C22.614 10.2815 20.7739 3.5863 19.7517 0.860107C19.4961 1.19344 18.6199 2.06725 17.1595 2.89582C15.334 3.93154 12.3037 3.86011 7.84956 6.39582C3.39539 8.93154 2.37312 13.7887 3.76049 16.7887Z" fill="white"/>
</svg>
