<svg width="870" height="1184" viewBox="0 0 870 1184" fill="none" xmlns="http://www.w3.org/2000/svg">
<g opacity="0.3">
<path d="M431.474 639.206C464.396 592.478 491.476 560.619 537.673 512.298C630.597 426.277 659.271 320.078 597.144 248.394C535.018 176.71 453.776 232.464 387.932 273.351C322.089 314.237 270.052 362.027 202.084 429.463C134.117 496.899 35.883 573.363 -70.847 598.319C-177.577 623.276 -315.104 634.427 -368.204 667.349C-421.303 700.27 -444.136 754.963 -435.109 796.911C-426.082 838.86 -391.037 893.552 -329.441 890.366C-267.846 887.18 -241.296 857.445 -206.782 851.604C-172.267 845.763 -139.876 873.374 -153.682 906.296C-167.488 939.218 -183.418 955.148 -147.841 976.387C-112.265 997.627 -59.165 942.404 -28.8983 866.472C1.36833 790.539 42.7859 753.901 80.4865 720.979C118.187 688.057 143.675 705.049 210.049 702.925C276.424 700.801 291.291 739.033 339.081 732.13C386.87 725.227 398.552 685.933 431.474 639.206Z" stroke="#005A58" stroke-opacity="0.25"/>
<path d="M-31.0222 1179.76C59.2469 1114.98 86.8586 1023.65 93.2305 949.307C99.6024 874.967 131.993 803.283 198.898 856.914C265.804 910.544 324.744 964.175 401.207 968.954C477.671 973.732 535.549 936.032 546.7 865.41C557.851 794.787 525.991 726.289 553.603 669.473C581.215 612.656 672.015 577.61 732.017 518.139C792.019 458.668 840.34 370.523 788.833 307.334C737.327 244.146 768.125 225.561 778.214 163.435C788.302 101.308 778.214 77.6518 750.071 59.8907C734.227 49.8912 716.169 33.3821 659.993 47.9184C592.492 65.3852 570.595 30.686 519.619 31.748C468.644 32.81 450.059 56.1738 395.366 109.804C340.674 163.435 281.203 154.408 207.925 193.701C134.648 232.995 118.187 319.547 66.1498 360.965C14.1123 402.382 -69.2539 394.417 -160.585 442.738C-251.916 491.058 -265.191 486.279 -317.759 502.209C-370.328 518.139 -417.586 540.441 -445.729 563.274M-445.729 992.317C-437.587 996.388 -413.763 1006.23 -383.603 1013.03C-345.902 1021.52 -325.724 1024.18 -286.962 1083.65C-248.199 1143.12 -191.383 1171.26 -169.081 1179.76M-445.729 949.307C-430.507 953.378 -393.054 963.006 -365.018 968.954C-329.972 976.387 -303.422 984.883 -267.846 1054.44C-232.269 1124 -161.116 1155.33 -113.857 1150.55C-66.5988 1145.77 -27.8363 1116.57 8.80234 1054.44C45.441 992.317 32.1661 845.232 122.435 810.717C212.704 776.202 288.637 888.773 356.604 919.04C424.571 949.307 487.76 923.819 503.689 856.914C519.619 790.008 473.003 753.591 511.123 669.473C545.706 593.16 715.495 541.493 743.699 456.013C772.294 369.346 709.715 330.698 704.936 282.908C700.157 235.119 746.217 197.246 732.017 143.788C719.188 95.4918 670.323 112.01 634.314 89.0954C606.473 71.3783 535.583 58.3194 478.289 94.8311C418.837 132.717 391.585 198.236 307.156 213.104C222.728 227.972 207.925 249.445 161.198 307.334C96.2886 387.748 96.9474 444.862 -75.0948 481.5C-247.137 518.139 -272.211 508.844 -349.622 543.475C-414.295 572.409 -448.072 619.117 -448.072 636.64M-445.729 906.827C-425.728 920.987 -378.187 949.307 -348.026 949.307C-310.325 949.307 -302.36 913.199 -259.35 931.253C-216.339 949.307 -246.606 979.573 -240.765 1006.65C-234.924 1033.73 -206.781 1037.45 -169.081 1045.95C-131.38 1054.44 -99.5205 1074.62 -71.3778 1060.28C-43.2351 1045.95 -23.0573 1010.37 8.80233 906.827C40.662 803.283 66.1498 778.956 116.863 760.199C155.625 745.862 213.861 742.45 247.69 754.913C285.352 768.789 304.077 786.629 326.318 817.683C356.604 859.971 374.988 872.771 399.66 877.15C427.708 882.128 477.628 861.292 468.644 769.961C461.467 697.005 475.547 643.985 511.123 603.629C546.7 563.274 658.74 523.364 695.378 442.738M-36.3322 502.209C-214.215 548.406 -341.123 550.53 -445.729 669.473M-445.729 856.914C-431.038 875.499 -416.357 912.17 -383.603 921.42C-347.08 931.735 -347.778 906.784 -317.759 902.919C-286.962 898.955 -270.993 919.04 -240.765 881.339C-217.454 852.266 -175.141 868.668 -178.639 906.827C-181.793 941.242 -213.146 966.867 -176.507 998.727C-139.868 1030.59 -81.4667 1013.03 -50.3052 963.708C-15.4647 908.567 -16.6854 852.666 28.4492 792.132C73.5837 731.599 196.554 720.602 250.405 729.805C331.604 743.68 391.071 824.291 420.143 733.769C450.647 638.792 448.52 606.759 571.126 502.209C707.923 385.558 636.438 255.828 610.95 209.631C585.462 163.435 534.487 163.435 461.21 209.631C387.932 255.828 334.833 276.537 262.618 341.318C190.402 406.099 139.958 486.81 51.8129 529.29C-36.3322 571.77 -146.248 583.982 -255.633 613.187C-365.018 642.392 -399.533 659.384 -437.233 692.305M448.466 3.60527C444.926 10.3312 444.717 28.031 421.916 51.3948C387.909 86.2415 357.328 76.9705 326.318 102.099C286.013 134.761 259.52 145.048 231.82 145.048C198.238 145.048 158.184 138.803 138.006 175.442C117.829 212.08 119.559 244.988 93.0759 291.935C69.7121 333.353 42.2033 363.386 -17.2681 373.665C-66.1196 382.108 -91.4925 375.302 -130.255 383.267C-169.018 391.231 -187.516 430.982 -225.402 452.293C-259.386 471.409 -296.762 475.25 -317.759 458.24C-338.757 441.229 -340.061 409.816 -328.91 379.55C-317.759 349.283 -297.051 334.415 -256.695 313.175C-216.339 291.935 -229.083 254.235 -192.445 227.685C-155.806 201.135 -101.645 241.491 -40.5802 199.542C20.4842 157.594 -5.00355 48.2089 -15.6234 3.60531M421.916 3.60527C411.65 22.0131 379.755 63.3953 334.302 81.6615C277.486 104.494 230.227 105.025 181.376 118.831C132.524 132.637 98.5404 125.734 70.9287 81.6616C48.8393 46.4035 25.9711 14.9332 17.2982 3.60531M379.968 3.60527C373.065 15.8182 351.931 44.3857 322.62 60.9528C285.981 81.6616 228.634 73.1656 201.553 81.6616C174.473 90.1575 141.551 102.901 112.877 92.2814C84.2036 81.6615 55.5298 35.996 49.6888 3.6053M345.48 3.60528C340.701 6.43725 318.039 6.95239 312 24.3141C305.961 41.6759 301.21 57.8229 289.316 60.9528C277.423 64.0826 271.114 60.9527 254.653 51.3948C243.725 45.0498 232.309 43.6505 216.421 51.3948C196.812 60.9528 193.057 65.7317 172.349 60.9528C151.64 56.1738 138.078 71.0416 122.149 71.0416C106.219 71.0416 94.2924 61.4838 94.2924 37.589C94.2924 18.4732 81.1946 6.96827 74.6457 3.6053M296.601 3.60528C298.371 12.1012 297.982 30.7923 282.265 37.589C262.618 46.0849 247.219 30.1551 231.82 24.3141C216.421 18.4732 193.057 16.8802 172.349 24.3142C151.64 31.7481 125.621 37.589 112.877 28.0311C102.682 20.3848 104.381 8.56125 106.505 3.6053M-106.955 3.60532C-105.716 10.3312 -103.356 25.3232 -97.8787 37.589C-90.6105 53.8651 -75.0949 60.4217 -75.0949 71.0416C-75.0949 81.6616 -92.0867 87.563 -106.955 87.563C-121.822 87.563 -146.177 81.6616 -167.257 51.3949C-185.806 24.7609 -202.003 10.5083 -218.463 3.60533M707.465 402.076C713.316 351.216 676.893 324.365 668.298 265.917C657.678 193.701 664.05 157.063 621.039 123.079C595.781 103.122 565.761 106.605 533.13 121.053M491.504 143.695C481.533 149.889 471.417 156.569 461.21 163.435C401.207 203.79 353.949 239.367 238.192 307.334C132.091 369.632 139.3 442.636 4.26429 489.955M346.515 648.233C309.876 642.392 295.539 620.621 262.618 620.621C229.696 620.621 184.031 645.047 161.198 632.834C138.365 620.621 135.179 612.125 175.004 587.699C214.828 563.274 227.572 576.548 250.405 547.344C273.238 518.139 272.176 480.969 296.601 442.738C321.027 404.506 346.515 381.673 395.366 353.531C444.218 325.388 509.53 299.9 540.328 316.892C571.126 333.884 576.967 362.027 540.328 402.382C503.689 442.738 466.52 460.261 430.943 511.767C395.366 563.274 404.924 641.861 346.515 648.233ZM-3.41054 648.233C-27.8363 669.473 -34.7392 677.438 -75.0948 681.154C-115.45 684.871 -121.822 666.818 -160.585 692.305C-199.348 717.793 -213.684 685.933 -240.765 692.305C-267.846 698.677 -287.493 700.801 -317.759 725.227C-348.026 749.653 -354.398 787.884 -329.972 810.717C-305.546 833.55 -278.466 817.62 -216.339 792.132C-154.213 766.645 -105.892 840.984 -81.4667 840.984C-57.0409 840.984 -50.138 813.372 -43.2351 785.229C-36.3322 757.087 -34.2083 730.006 8.80231 705.58C51.8129 681.154 66.1498 676.375 66.1498 654.605C66.1498 632.834 29.5111 623.714 -3.41054 648.233ZM322.089 593.009C285.982 587.699 273.238 565.929 282.796 541.503C292.353 517.077 310.407 513.36 328.461 474.598C346.515 435.835 356.073 426.277 371.472 408.754C386.87 391.231 415.544 383.266 430.943 364.682C446.342 346.097 464.927 321.14 496.786 325.919C528.646 330.698 504.22 343.442 511.123 364.682C518.026 385.921 502.627 401.32 477.14 422.029C451.652 442.738 413.42 467.695 387.933 495.306C362.445 522.918 358.197 551.061 352.356 574.956C347.683 594.071 330.231 594.956 322.089 593.009ZM104.381 184.674C104.381 217.069 96.2747 234.909 57.3958 271.758C24.6531 302.791 28.3231 346.854 -31.1437 360.965C-84.6638 373.665 -128.725 353.531 -160.585 360.965C-192.445 368.399 -193.748 397.74 -239.278 415.952C-272.315 429.167 -295.099 415.952 -292.798 390.183C-290.143 360.447 -251.94 356.924 -217.473 321.671C-188.4 291.935 -177.829 257.222 -148.372 246.27C-114.919 233.832 -75.0948 250.766 -36.3322 223.676C11.0709 190.547 12.8495 150.048 36.945 123.243C57.3958 100.493 104.381 121.922 104.381 184.674ZM83.1648 189.317C83.1648 230.944 62.9638 236.181 36.9451 271.758C10.9263 307.334 -14.0304 329.105 -49.6071 331.229C-85.1837 333.353 -130.318 343.973 -148.372 337.601C-166.426 331.229 -180.146 325.134 -177.168 304.287C-174.19 283.44 -150.496 265.716 -114.919 261.999C-69.4668 257.25 -49.3753 273.882 -21.2326 246.27C6.91016 218.658 1.8994 189.317 33.228 160.245C57.7558 137.483 83.1648 154.298 83.1648 189.317ZM48.0959 237.774C30.042 255.836 21.103 271.968 10.4831 288.429C-1.71402 307.334 -17.5493 320.522 -43.0371 324.77C-68.5248 329.018 -82.6816 318.904 -103.769 328.073C-130.255 339.591 -162.655 332.164 -157.346 304.287C-152.036 276.409 -87.3068 285.193 -49.6071 277.196C-14.5614 269.762 9.82234 230.944 24.2012 199.542C36.41 172.879 57.236 167.961 66.1498 184.674C74.6457 200.604 66.1498 219.712 48.0959 237.774ZM24.2012 246.27C11.9883 262.731 5.54419 277.993 -6.03547 291.935C-21.2325 310.233 -36.3322 307.334 -58.634 307.334C-80.9359 307.334 -87.9675 307.334 -103.769 316.361C-120.109 325.696 -139.505 324.77 -139.505 310.233C-139.505 295.697 -111.412 291.935 -93.2535 291.935C-75.0948 291.935 -58.634 299.661 -36.3322 288.429C-20.6751 280.543 -12.4375 272.82 1.8994 255.297C16.2363 237.774 26.8561 219.72 33.228 209.631C39.6 199.542 41.193 194.763 51.8129 199.542C62.4328 204.321 31.0687 237.243 24.2012 246.27Z" stroke="#005A58" stroke-opacity="0.5" stroke-width="2"/>
<path d="M52.875 1182.41C81.7257 1164.18 142.825 1114.55 156.419 1061.88C173.411 996.034 129.869 925.943 184.562 907.889C235.05 891.223 279.34 1001.88 369.266 1025.93M743.247 3.64855C797.427 18.8456 825.377 35.0096 831.844 81.6613C833.8 95.7708 831.997 111.459 828.67 127.868M-259.35 1182.41C-275.457 1172.32 -312.343 1143.12 -331.034 1107.01C-354.398 1061.88 -390.506 1047.01 -434.578 1047.01M-456.88 518.139C-428.56 511.944 -369.797 493.713 -361.301 470.349C-350.681 441.145 -394.223 420.436 -385.727 379.018C-377.231 337.601 -309.977 345.54 -257.778 291.072C-208.927 240.096 -218.795 195.264 -173.203 186.014C-127.612 176.763 -50.6691 198.28 -30.483 157.602C-10.2968 116.924 -41.1112 24.845 -50.6691 1.4812M-87.3078 1.4812C-79.3429 20.951 -57.0411 48.5791 -57.0411 81.6614C-57.0411 119.939 -78.7727 146.332 -100.522 131.833C-112.415 123.904 -101.264 111.256 -112.415 102.76C-131.577 88.1607 -152.247 120.596 -173.203 74.3481C-192.365 32.0606 -211.56 23.783 -249.261 1.48122M741.542 592.37C758.364 566.948 780.725 539.76 818.569 508.581C912.024 431.587 850.429 324.857 818.569 272.819C802.289 246.229 808.168 211.725 816.761 176.763M716.156 634.528C701.609 658.487 684.698 684.331 656.085 715.669C578.029 801.159 613.605 845.763 593.958 907.889C575.932 964.89 499.526 1026.59 415.518 1030.43M463.151 536.868C423.434 593.969 398.766 679.144 356.604 693.367C312.531 708.235 290.229 660.976 223.324 665.755C183.435 668.605 162.043 669.944 138.667 675.287M493.486 501.474C527.39 469.421 558.863 460.18 580.684 426.808C607.764 385.39 612.543 307.334 572.188 272.819C542.384 247.329 507.873 244.172 474.324 251.75M434.775 265.303C391.927 284.5 338.495 320.977 312.531 357.248C285.644 394.808 257.839 463.446 214.828 496.368C171.818 529.29 135.71 537.786 82.0795 560.618C38.1583 579.318 9.90703 606.564 -37.0903 626.608M95.0582 688.594C90.9666 690.064 86.6551 691.651 82.0796 693.367C23.6701 727.882 13.5813 744.874 -20.4024 803.283C-54.386 861.692 -68.7229 919.04 -100.583 922.757C-132.442 926.474 -109.079 863.816 -145.717 840.984C-148.518 839.238 -151.288 837.713 -154.042 836.395M-196.99 830.626C-217.836 833.76 -241.683 843.673 -273.687 855.852C-333.689 878.684 -367.142 871.781 -385.727 822.93C-404.312 774.078 -388.382 713.545 -331.034 686.464C-274.952 659.981 -146.761 658.381 -76.0742 639.949" stroke="#005A58" stroke-width="3"/>
<path d="M737.547 602.948C740.443 604.636 741.202 606.66 739.827 609.019C739.61 609.39 739.399 609.687 739.192 609.91L738.2 609.331C738.424 609.118 738.634 608.843 738.831 608.506C739.293 607.713 739.428 606.993 739.235 606.347C739.042 605.701 738.486 605.087 737.568 604.506L737.532 604.567C737.713 604.885 737.794 605.231 737.775 605.604C737.76 605.98 737.639 606.361 737.413 606.749C737.021 607.421 736.51 607.824 735.88 607.958C735.25 608.093 734.582 607.954 733.877 607.543C733.101 607.091 732.614 606.515 732.416 605.816C732.219 605.122 732.339 604.401 732.776 603.652C733.085 603.122 733.48 602.735 733.961 602.491C734.446 602.249 734.993 602.164 735.603 602.235C736.214 602.311 736.862 602.549 737.547 602.948ZM733.769 604.204C733.531 604.612 733.48 605.003 733.615 605.376C733.748 605.752 734.06 606.083 734.549 606.368C734.974 606.616 735.369 606.706 735.734 606.639C736.097 606.575 736.4 606.335 736.642 605.92C736.791 605.663 736.873 605.395 736.888 605.114C736.906 604.835 736.855 604.577 736.736 604.34C736.619 604.105 736.462 603.929 736.263 603.813C735.787 603.536 735.311 603.43 734.834 603.495C734.358 603.566 734.004 603.802 733.769 604.204ZM731.727 614.185C730.441 613.435 729.607 612.67 729.225 611.891C728.841 611.116 728.897 610.302 729.393 609.452C729.873 608.629 730.559 608.192 731.452 608.143C732.344 608.094 733.413 608.432 734.658 609.158C735.964 609.92 736.806 610.687 737.183 611.458C737.562 612.236 737.504 613.048 737.01 613.895C736.528 614.721 735.839 615.158 734.943 615.206C734.048 615.253 732.975 614.913 731.727 614.185ZM733.956 610.363C732.947 609.775 732.166 609.457 731.614 609.411C731.06 609.369 730.651 609.575 730.385 610.031C730.119 610.486 730.145 610.947 730.461 611.412C730.776 611.88 731.431 612.404 732.427 612.985C733.419 613.564 734.198 613.875 734.764 613.921C735.331 613.971 735.748 613.769 736.013 613.313C736.279 612.858 736.255 612.398 735.942 611.935C735.627 611.476 734.965 610.951 733.956 610.363ZM728.273 620.107C726.988 619.357 726.154 618.592 725.772 617.813C725.387 617.037 725.443 616.224 725.939 615.374C726.419 614.551 727.106 614.114 727.998 614.065C728.891 614.016 729.959 614.354 731.204 615.08C732.51 615.842 733.352 616.609 733.729 617.38C734.108 618.158 734.051 618.97 733.557 619.817C733.075 620.643 732.386 621.08 731.49 621.128C730.594 621.175 729.522 620.835 728.273 620.107ZM730.502 616.285C729.493 615.697 728.713 615.379 728.161 615.333C727.607 615.291 727.197 615.497 726.931 615.953C726.666 616.408 726.691 616.868 727.008 617.334C727.322 617.802 727.977 618.326 728.973 618.907C729.965 619.485 730.744 619.797 731.31 619.843C731.877 619.893 732.294 619.691 732.56 619.235C732.825 618.78 732.802 618.32 732.488 617.857C732.173 617.398 731.511 616.873 730.502 616.285Z" fill="#005553"/>
<path d="M708.324 411.027C711.552 411.927 712.799 413.692 712.066 416.323C711.951 416.736 711.821 417.077 711.677 417.346L710.571 417.037C710.734 416.774 710.867 416.455 710.972 416.078C711.219 415.194 711.167 414.464 710.817 413.888C710.466 413.312 709.774 412.859 708.738 412.529L708.719 412.597C708.975 412.859 709.14 413.173 709.217 413.539C709.297 413.906 709.277 414.306 709.156 414.739C708.947 415.487 708.555 416.007 707.98 416.296C707.404 416.586 706.723 416.621 705.937 416.402C705.071 416.16 704.454 415.727 704.085 415.101C703.719 414.48 703.653 413.751 703.885 412.916C704.05 412.325 704.335 411.851 704.738 411.493C705.146 411.136 705.654 410.915 706.262 410.829C706.873 410.748 707.56 410.814 708.324 411.027ZM704.987 413.199C704.86 413.654 704.909 414.045 705.134 414.371C705.358 414.701 705.743 414.943 706.289 415.095C706.763 415.227 707.168 415.214 707.504 415.056C707.839 414.903 708.071 414.594 708.2 414.131C708.28 413.845 708.291 413.565 708.234 413.289C708.181 413.015 708.066 412.778 707.891 412.579C707.719 412.381 707.522 412.251 707.3 412.189C706.769 412.041 706.282 412.059 705.837 412.244C705.395 412.433 705.112 412.751 704.987 413.199ZM701.412 422.221L702.972 416.627L703.977 416.908L705.523 419.632C705.991 420.44 706.33 420.982 706.541 421.26C706.754 421.543 706.966 421.764 707.177 421.924C707.387 422.084 707.628 422.202 707.899 422.278C708.272 422.381 708.597 422.35 708.874 422.185C709.151 422.022 709.344 421.744 709.454 421.349C709.542 421.033 709.569 420.71 709.536 420.38C709.501 420.054 709.385 419.655 709.188 419.182L710.263 418.709C710.523 419.276 710.673 419.799 710.714 420.277C710.755 420.754 710.708 421.238 710.571 421.727C710.357 422.495 709.984 423.054 709.453 423.404C708.925 423.756 708.322 423.837 707.645 423.648C707.272 423.544 706.937 423.378 706.64 423.149C706.342 422.924 706.053 422.623 705.773 422.244C705.496 421.871 705.145 421.278 704.718 420.466L703.73 418.645L703.673 418.629L702.581 422.546L701.412 422.221ZM703.697 429.975C702.263 429.575 701.263 429.047 700.696 428.39C700.128 427.736 699.976 426.936 700.24 425.988C700.496 425.069 701.05 424.474 701.901 424.2C702.752 423.926 703.871 423.983 705.26 424.37C706.716 424.776 707.724 425.305 708.285 425.956C708.848 426.612 708.998 427.412 708.735 428.356C708.478 429.278 707.922 429.875 707.067 430.148C706.212 430.421 705.089 430.363 703.697 429.975ZM704.885 425.713C703.76 425.4 702.925 425.29 702.379 425.386C701.832 425.485 701.488 425.788 701.347 426.296C701.205 426.804 701.346 427.243 701.77 427.613C702.193 427.986 702.96 428.327 704.07 428.637C705.176 428.946 706.009 429.05 706.568 428.95C707.129 428.856 707.481 428.554 707.623 428.046C707.764 427.538 707.625 427.1 707.205 426.731C706.783 426.366 706.01 426.027 704.885 425.713Z" fill="#005553" fill-opacity="0.5"/>
<path d="M499.998 136.414C498.47 133.432 498.92 131.318 501.35 130.073C501.733 129.877 502.071 129.741 502.366 129.664L502.889 130.686C502.586 130.745 502.261 130.864 501.913 131.042C501.096 131.46 500.595 131.994 500.409 132.642C500.223 133.29 500.36 134.107 500.821 135.091L500.883 135.059C500.902 134.693 501.021 134.359 501.238 134.054C501.453 133.746 501.761 133.49 502.16 133.285C502.852 132.931 503.5 132.867 504.103 133.093C504.706 133.319 505.194 133.796 505.566 134.523C505.976 135.322 506.076 136.07 505.866 136.765C505.658 137.456 505.168 137.999 504.396 138.394C503.85 138.674 503.309 138.787 502.772 138.732C502.234 138.675 501.727 138.452 501.251 138.064C500.777 137.67 500.359 137.12 499.998 136.414ZM503.857 137.393C504.278 137.178 504.532 136.876 504.619 136.489C504.709 136.101 504.625 135.654 504.367 135.15C504.142 134.712 503.858 134.423 503.515 134.283C503.174 134.142 502.79 134.18 502.363 134.4C502.098 134.535 501.884 134.717 501.721 134.946C501.555 135.171 501.459 135.416 501.432 135.68C501.403 135.94 501.441 136.173 501.546 136.378C501.797 136.868 502.141 137.214 502.578 137.416C503.017 137.613 503.443 137.605 503.857 137.393ZM512.911 133.9L507.743 136.548L507.267 135.62L508.22 132.636C508.496 131.744 508.665 131.126 508.726 130.783C508.789 130.435 508.808 130.129 508.783 129.866C508.757 129.602 508.681 129.345 508.552 129.095C508.376 128.751 508.133 128.533 507.823 128.442C507.516 128.349 507.18 128.396 506.815 128.583C506.523 128.732 506.267 128.931 506.048 129.18C505.832 129.427 505.617 129.782 505.403 130.247L504.327 129.779C504.568 129.203 504.85 128.738 505.173 128.384C505.496 128.03 505.884 127.737 506.336 127.505C507.045 127.142 507.708 127.036 508.327 127.189C508.943 127.339 509.412 127.726 509.732 128.352C509.909 128.696 510.013 129.055 510.047 129.429C510.084 129.8 510.058 130.217 509.97 130.679C509.884 131.136 509.687 131.797 509.379 132.661L508.712 134.623L508.738 134.675L512.357 132.82L512.911 133.9ZM517.059 126.962C517.737 128.286 518.028 129.38 517.929 130.242C517.835 131.102 517.35 131.757 516.473 132.206C515.625 132.641 514.812 132.638 514.034 132.199C513.255 131.759 512.538 130.898 511.88 129.615C511.191 128.27 510.895 127.17 510.994 126.317C511.093 125.458 511.58 124.805 512.452 124.358C513.304 123.921 514.12 123.925 514.9 124.368C515.68 124.811 516.399 125.675 517.059 126.962ZM513.121 128.979C513.654 130.018 514.14 130.706 514.58 131.043C515.024 131.377 515.48 131.424 515.95 131.184C516.419 130.943 516.646 130.542 516.63 129.98C516.617 129.415 516.348 128.621 515.823 127.595C515.299 126.573 514.811 125.89 514.359 125.547C513.908 125.199 513.448 125.145 512.979 125.385C512.509 125.626 512.282 126.025 512.296 126.584C512.314 127.141 512.589 127.94 513.121 128.979Z" fill="#005553" fill-opacity="0.5"/>
<path d="M404.753 1033.58C404.478 1036.92 402.979 1038.48 400.258 1038.25C399.83 1038.22 399.471 1038.16 399.18 1038.07L399.275 1036.92C399.563 1037.03 399.902 1037.1 400.292 1037.13C401.207 1037.21 401.914 1037.02 402.414 1036.57C402.914 1036.12 403.228 1035.35 403.356 1034.27L403.286 1034.27C403.077 1034.57 402.8 1034.79 402.455 1034.93C402.11 1035.08 401.713 1035.14 401.265 1035.1C400.491 1035.03 399.907 1034.75 399.514 1034.24C399.121 1033.73 398.958 1033.06 399.025 1032.25C399.099 1031.35 399.409 1030.67 399.954 1030.19C400.495 1029.71 401.198 1029.51 402.062 1029.58C402.673 1029.63 403.192 1029.82 403.62 1030.15C404.047 1030.48 404.36 1030.94 404.559 1031.52C404.754 1032.1 404.819 1032.79 404.753 1033.58ZM401.992 1030.71C401.521 1030.67 401.146 1030.8 400.868 1031.08C400.586 1031.36 400.422 1031.79 400.375 1032.35C400.335 1032.84 400.423 1033.24 400.642 1033.54C400.856 1033.84 401.203 1034.01 401.681 1034.05C401.977 1034.07 402.255 1034.03 402.515 1033.92C402.774 1033.82 402.985 1033.66 403.148 1033.45C403.31 1033.24 403.4 1033.02 403.419 1032.8C403.464 1032.25 403.355 1031.77 403.09 1031.37C402.821 1030.97 402.455 1030.75 401.992 1030.71ZM392.106 1033.17C392.228 1031.69 392.558 1030.61 393.097 1029.93C393.631 1029.25 394.389 1028.95 395.37 1029.03C396.32 1029.1 397.009 1029.54 397.438 1030.32C397.868 1031.1 398.023 1032.21 397.904 1033.65C397.78 1035.16 397.451 1036.25 396.917 1036.92C396.379 1037.6 395.622 1037.9 394.644 1037.81C393.691 1037.74 392.999 1037.3 392.57 1036.51C392.142 1035.73 391.987 1034.61 392.106 1033.17ZM396.514 1033.54C396.611 1032.37 396.56 1031.53 396.364 1031.01C396.164 1030.5 395.801 1030.21 395.275 1030.17C394.75 1030.13 394.345 1030.35 394.062 1030.84C393.775 1031.32 393.584 1032.14 393.49 1033.29C393.395 1034.43 393.449 1035.27 393.653 1035.8C393.852 1036.33 394.214 1036.62 394.739 1036.66C395.265 1036.71 395.669 1036.49 395.952 1036.01C396.231 1035.52 396.418 1034.7 396.514 1033.54ZM385.273 1032.61C385.396 1031.12 385.726 1030.04 386.264 1029.36C386.799 1028.68 387.557 1028.38 388.538 1028.46C389.488 1028.54 390.177 1028.97 390.606 1029.76C391.035 1030.54 391.191 1031.65 391.072 1033.09C390.948 1034.59 390.619 1035.68 390.085 1036.36C389.547 1037.03 388.789 1037.33 387.812 1037.25C386.858 1037.17 386.167 1036.74 385.738 1035.95C385.309 1035.16 385.154 1034.05 385.273 1032.61ZM389.682 1032.97C389.778 1031.81 389.728 1030.97 389.532 1030.45C389.332 1029.93 388.969 1029.65 388.443 1029.61C387.918 1029.56 387.513 1029.78 387.23 1030.27C386.943 1030.76 386.752 1031.57 386.657 1032.72C386.563 1033.87 386.617 1034.7 386.82 1035.23C387.019 1035.77 387.382 1036.06 387.907 1036.1C388.433 1036.14 388.837 1035.92 389.12 1035.44C389.399 1034.96 389.586 1034.14 389.682 1032.97Z" fill="#005553"/>
<path d="M828.522 140.188C831.777 140.989 833.077 142.715 832.425 145.366C832.322 145.784 832.203 146.129 832.067 146.401L830.952 146.126C831.107 145.859 831.231 145.535 831.324 145.156C831.543 144.265 831.469 143.536 831.102 142.971C830.734 142.406 830.027 141.974 828.982 141.677L828.966 141.745C829.229 141.999 829.404 142.308 829.492 142.671C829.583 143.036 829.575 143.436 829.468 143.872C829.282 144.627 828.906 145.158 828.339 145.465C827.773 145.772 827.093 145.828 826.301 145.633C825.428 145.418 824.798 145.004 824.41 144.389C824.025 143.779 823.937 143.054 824.144 142.212C824.291 141.616 824.56 141.133 824.953 140.763C825.35 140.394 825.85 140.158 826.455 140.053C827.063 139.953 827.752 139.998 828.522 140.188ZM825.253 142.461C825.14 142.919 825.201 143.309 825.437 143.628C825.671 143.951 826.063 144.18 826.613 144.316C827.091 144.434 827.495 144.408 827.826 144.24C828.156 144.076 828.379 143.761 828.494 143.294C828.565 143.006 828.567 142.725 828.502 142.452C828.44 142.179 828.319 141.946 828.137 141.752C827.959 141.56 827.758 141.436 827.535 141.381C827 141.249 826.513 141.282 826.074 141.48C825.638 141.682 825.364 142.009 825.253 142.461ZM826.115 152.611C824.67 152.256 823.654 151.758 823.067 151.119C822.48 150.483 822.303 149.688 822.539 148.732C822.767 147.806 823.302 147.194 824.144 146.894C824.986 146.595 826.107 146.617 827.506 146.962C828.974 147.323 829.998 147.82 830.578 148.454C831.162 149.092 831.336 149.888 831.101 150.84C830.873 151.769 830.335 152.383 829.489 152.682C828.644 152.98 827.519 152.957 826.115 152.611ZM827.173 148.316C826.039 148.037 825.201 147.953 824.658 148.065C824.115 148.18 823.78 148.494 823.654 149.006C823.528 149.518 823.682 149.953 824.118 150.309C824.552 150.67 825.328 150.987 826.447 151.263C827.563 151.537 828.398 151.616 828.954 151.5C829.512 151.388 829.855 151.076 829.981 150.564C830.107 150.052 829.954 149.618 829.523 149.262C829.09 148.91 828.307 148.595 827.173 148.316ZM824.477 159.268C823.032 158.912 822.016 158.415 821.429 157.775C820.841 157.14 820.665 156.344 820.9 155.388C821.128 154.463 821.663 153.85 822.505 153.551C823.347 153.251 824.468 153.274 825.868 153.618C827.335 153.98 828.359 154.477 828.94 155.111C829.523 155.749 829.697 156.544 829.463 157.496C829.234 158.426 828.697 159.04 827.851 159.338C827.005 159.637 825.88 159.614 824.477 159.268ZM825.534 154.972C824.4 154.693 823.562 154.61 823.019 154.721C822.476 154.837 822.141 155.151 822.015 155.663C821.889 156.175 822.044 156.609 822.479 156.966C822.913 157.326 823.69 157.644 824.809 157.92C825.924 158.194 826.759 158.273 827.315 158.156C827.873 158.045 828.216 157.733 828.342 157.22C828.468 156.708 828.315 156.275 827.884 155.919C827.452 155.567 826.668 155.252 825.534 154.972Z" fill="#005553"/>
<path d="M488.525 509.637C491.112 511.768 491.538 513.887 489.803 515.995C489.529 516.327 489.273 516.586 489.033 516.773L488.146 516.043C488.401 515.868 488.653 515.63 488.901 515.329C489.485 514.62 489.733 513.931 489.646 513.263C489.559 512.594 489.109 511.899 488.295 511.179L488.251 511.233C488.378 511.576 488.403 511.93 488.324 512.296C488.249 512.664 488.069 513.021 487.783 513.368C487.289 513.968 486.72 514.284 486.077 514.316C485.433 514.348 484.796 514.104 484.166 513.586C483.472 513.014 483.084 512.368 483 511.646C482.917 510.93 483.151 510.237 483.702 509.568C484.092 509.094 484.544 508.776 485.058 508.612C485.575 508.451 486.129 508.454 486.72 508.622C487.311 508.795 487.913 509.133 488.525 509.637ZM484.594 510.272C484.294 510.637 484.181 511.014 484.254 511.404C484.326 511.797 484.58 512.173 485.017 512.533C485.397 512.846 485.773 512.998 486.144 512.99C486.512 512.985 486.849 512.797 487.155 512.426C487.344 512.197 487.468 511.945 487.527 511.67C487.589 511.397 487.581 511.135 487.501 510.881C487.424 510.631 487.296 510.432 487.118 510.286C486.693 509.936 486.24 509.755 485.759 509.743C485.278 509.737 484.89 509.913 484.594 510.272ZM478.923 518.498L479.656 517.607L478.213 516.418L479.066 515.383L480.509 516.571L482.997 513.549L483.816 514.223L485.698 520.842L484.845 521.878L480.538 518.333L479.805 519.224L478.923 518.498ZM481.391 517.297L483.051 518.664C483.642 519.15 484.114 519.564 484.466 519.904L484.496 519.868C484.366 519.62 484.234 519.289 484.1 518.874L483.063 515.266L481.391 517.297ZM476.623 525.089C475.474 524.143 474.773 523.255 474.52 522.425C474.265 521.598 474.451 520.804 475.076 520.044C475.682 519.308 476.43 518.988 477.318 519.082C478.207 519.176 479.208 519.681 480.321 520.597C481.488 521.558 482.196 522.45 482.445 523.272C482.694 524.1 482.507 524.892 481.884 525.649C481.276 526.388 480.526 526.709 479.634 526.612C478.742 526.516 477.738 526.008 476.623 525.089ZM479.434 521.674C478.533 520.932 477.813 520.494 477.276 520.36C476.736 520.229 476.298 520.367 475.963 520.774C475.628 521.181 475.579 521.64 475.817 522.149C476.053 522.662 476.616 523.285 477.505 524.017C478.392 524.747 479.111 525.18 479.662 525.315C480.214 525.456 480.658 525.323 480.993 524.916C481.328 524.508 481.378 524.051 481.143 523.544C480.906 523.04 480.336 522.416 479.434 521.674Z" fill="#005553"/>
<path d="M129.83 680.213C130.771 683.43 129.93 685.422 127.31 686.188C126.897 686.309 126.539 686.379 126.236 686.398L125.913 685.296C126.223 685.295 126.565 685.24 126.939 685.13C127.821 684.873 128.413 684.443 128.718 683.841C129.022 683.239 129.04 682.412 128.773 681.359L128.706 681.378C128.618 681.734 128.439 682.04 128.169 682.298C127.899 682.56 127.549 682.754 127.118 682.88C126.372 683.099 125.724 683.04 125.174 682.704C124.624 682.368 124.235 681.809 124.005 681.025C123.753 680.163 123.796 679.41 124.132 678.766C124.467 678.127 125.05 677.686 125.882 677.442C126.471 677.27 127.024 677.261 127.541 677.415C128.059 677.573 128.515 677.887 128.909 678.358C129.301 678.834 129.608 679.452 129.83 680.213ZM126.224 678.527C125.77 678.659 125.464 678.908 125.306 679.271C125.144 679.636 125.142 680.09 125.301 680.634C125.439 681.106 125.664 681.444 125.976 681.646C126.283 681.849 126.668 681.883 127.129 681.748C127.414 681.665 127.658 681.526 127.862 681.332C128.067 681.142 128.207 680.92 128.284 680.666C128.361 680.415 128.367 680.179 128.303 679.958C128.148 679.429 127.875 679.025 127.484 678.744C127.09 678.469 126.67 678.396 126.224 678.527ZM116.907 682.136L118.015 681.812L117.49 680.018L118.778 679.641L119.303 681.435L123.06 680.337L123.357 681.355L121.189 687.886L119.901 688.263L118.336 682.909L117.228 683.232L116.907 682.136ZM119.623 682.532L120.227 684.596C120.442 685.331 120.599 685.938 120.698 686.418L120.743 686.405C120.776 686.126 120.853 685.778 120.975 685.36L122.149 681.794L119.623 682.532ZM111.297 686.291C110.879 684.863 110.8 683.734 111.058 682.906C111.313 682.078 111.912 681.527 112.857 681.25C113.772 680.983 114.57 681.138 115.252 681.716C115.934 682.294 116.477 683.275 116.881 684.658C117.306 686.109 117.389 687.245 117.132 688.065C116.873 688.889 116.273 689.439 115.332 689.714C114.413 689.983 113.612 689.826 112.93 689.245C112.247 688.663 111.702 687.678 111.297 686.291ZM115.543 685.05C115.215 683.929 114.867 683.162 114.498 682.749C114.125 682.337 113.686 682.205 113.179 682.353C112.673 682.501 112.375 682.852 112.285 683.408C112.191 683.964 112.306 684.795 112.63 685.901C112.952 687.004 113.303 687.766 113.683 688.188C114.06 688.615 114.502 688.754 115.008 688.606C115.514 688.459 115.813 688.109 115.904 687.557C115.991 687.007 115.871 686.171 115.543 685.05Z" fill="#005553"/>
<path d="M441.402 260.581C440.16 257.468 440.808 255.406 443.344 254.395C443.744 254.236 444.093 254.132 444.394 254.084L444.819 255.15C444.511 255.181 444.176 255.268 443.813 255.413C442.961 255.753 442.411 256.236 442.165 256.864C441.919 257.492 441.979 258.318 442.345 259.341L442.411 259.315C442.464 258.953 442.613 258.631 442.858 258.348C443.101 258.062 443.431 257.836 443.849 257.669C444.571 257.381 445.221 257.379 445.801 257.661C446.38 257.943 446.821 258.463 447.123 259.221C447.456 260.056 447.485 260.81 447.211 261.483C446.939 262.15 446.4 262.645 445.594 262.966C445.025 263.193 444.475 263.254 443.946 263.15C443.415 263.042 442.931 262.772 442.494 262.341C442.059 261.904 441.695 261.318 441.402 260.581ZM445.152 261.919C445.591 261.744 445.872 261.468 445.995 261.09C446.121 260.712 446.08 260.26 445.87 259.734C445.688 259.276 445.432 258.962 445.103 258.79C444.778 258.617 444.392 258.62 443.945 258.798C443.67 258.908 443.439 259.069 443.255 259.281C443.069 259.49 442.95 259.724 442.898 259.985C442.845 260.241 442.861 260.477 442.946 260.691C443.15 261.202 443.46 261.579 443.877 261.821C444.295 262.058 444.72 262.091 445.152 261.919ZM454.084 257.443L453.012 257.87L453.704 259.607L452.458 260.104L451.766 258.367L448.13 259.817L447.737 258.832L449.277 252.124L450.523 251.627L452.589 256.809L453.661 256.382L454.084 257.443ZM451.343 257.306L450.546 255.308C450.263 254.597 450.049 254.008 449.904 253.54L449.861 253.557C449.855 253.837 449.811 254.191 449.729 254.619L448.899 258.28L451.343 257.306ZM459.276 252.775C459.827 254.157 460.013 255.273 459.834 256.122C459.659 256.97 459.114 257.576 458.2 257.941C457.315 258.294 456.505 258.215 455.772 257.704C455.038 257.193 454.405 256.268 453.871 254.929C453.311 253.525 453.12 252.403 453.298 251.562C453.478 250.717 454.024 250.112 454.934 249.749C455.823 249.395 456.635 249.475 457.37 249.989C458.105 250.504 458.74 251.432 459.276 252.775ZM455.166 254.413C455.599 255.498 456.018 256.228 456.425 256.605C456.835 256.979 457.285 257.069 457.775 256.874C458.265 256.679 458.528 256.3 458.565 255.739C458.605 255.176 458.412 254.359 457.986 253.289C457.56 252.222 457.139 251.497 456.721 251.112C456.305 250.723 455.852 250.626 455.362 250.821C454.872 251.017 454.608 251.393 454.57 251.951C454.535 252.507 454.734 253.328 455.166 254.413Z" fill="#005553"/>
</g>
</svg>
