<svg width="17" height="25" viewBox="0 0 17 25" fill="none" xmlns="http://www.w3.org/2000/svg">
<path fill-rule="evenodd" clip-rule="evenodd" d="M8.49231 0.860107C15.5077 0.860107 16.2462 7.35857 16.2462 9.72165C16.2462 12.0847 11.8154 19.6909 8.49231 24.8601C8.06349 24.2598 7.61972 23.6465 7.17027 23.0253C3.74981 18.2981 0 13.1157 0 9.72165C0 5.88165 1.47692 0.860107 8.49231 0.860107ZM8.12307 11.1986C9.75443 11.1986 11.0769 9.8761 11.0769 8.24474C11.0769 6.61338 9.75443 5.29089 8.12307 5.29089C6.4917 5.29089 5.16922 6.61338 5.16922 8.24474C5.16922 9.8761 6.4917 11.1986 8.12307 11.1986Z" fill="white"/>
</svg>
