<svg width="29" height="29" viewBox="0 0 29 29" fill="none" xmlns="http://www.w3.org/2000/svg">
<path d="M13.4737 13.9279L12.4098 9.95947C12.3513 9.96264 12.2938 9.96854 12.2344 9.96854C12.1751 9.96854 12.1175 9.96264 12.0591 9.95947L10.9951 13.9279C11.2553 13.9725 11.5178 14.0028 11.7813 14.0186V13.5935C11.7813 13.4734 11.829 13.3581 11.914 13.2731C11.999 13.1881 12.1142 13.1404 12.2344 13.1404C12.3546 13.1404 12.4698 13.1881 12.5548 13.2731C12.6398 13.3581 12.6875 13.4734 12.6875 13.5935V14.0195C12.9511 14.0034 13.2135 13.9728 13.4737 13.9279Z" fill="#FFF"/>
<path d="M9.96875 6.79687C9.96875 7.24497 10.1016 7.68301 10.3506 8.05558C10.5995 8.42816 10.9534 8.71856 11.3674 8.89003C11.7813 9.06151 12.2369 9.10638 12.6764 9.01896C13.1159 8.93154 13.5196 8.71576 13.8364 8.39891C14.1533 8.08206 14.369 7.67836 14.4565 7.23887C14.5439 6.79939 14.499 6.34384 14.3275 5.92986C14.1561 5.51587 13.8657 5.16203 13.4931 4.91308C13.1205 4.66413 12.6825 4.53125 12.2344 4.53125C11.6337 4.53197 11.0579 4.7709 10.6331 5.19563C10.2084 5.62036 9.96947 6.19621 9.96875 6.79687ZM12.2344 5.4375C12.5032 5.4375 12.7661 5.51722 12.9896 5.66659C13.2131 5.81596 13.3874 6.02827 13.4903 6.27666C13.5932 6.52506 13.6201 6.79838 13.5676 7.06207C13.5152 7.32577 13.3857 7.56798 13.1956 7.75809C13.0055 7.94821 12.7633 8.07767 12.4996 8.13013C12.2359 8.18258 11.9626 8.15566 11.7142 8.05277C11.4658 7.94988 11.2535 7.77565 11.1041 7.5521C10.9547 7.32855 10.875 7.06573 10.875 6.79687C10.875 6.43634 11.0182 6.09058 11.2732 5.83565C11.5281 5.58072 11.8738 5.4375 12.2344 5.4375Z" fill="#FFF"/>
<path d="M12.2344 7.25C12.4846 7.25 12.6875 7.04713 12.6875 6.79688C12.6875 6.54662 12.4846 6.34375 12.2344 6.34375C11.9841 6.34375 11.7812 6.54662 11.7812 6.79688C11.7812 7.04713 11.9841 7.25 12.2344 7.25Z" fill="#FFF"/>
<path d="M13.1406 3.76094V2.71875C13.1406 2.4784 13.0451 2.24789 12.8752 2.07793C12.7052 1.90798 12.4747 1.8125 12.2344 1.8125C11.994 1.8125 11.7635 1.90798 11.5936 2.07793C11.4236 2.24789 11.3281 2.4784 11.3281 2.71875V3.76094C11.9191 3.5827 12.5496 3.5827 13.1406 3.76094Z" fill="#FFF"/>
<path d="M7.83548 20.4677H7.83956C7.95476 20.4968 8.07678 20.4795 8.17933 20.4195C8.28188 20.3595 8.35676 20.2616 8.38784 20.1469L11.1682 9.7785C10.8752 9.67353 10.5993 9.52588 10.3494 9.34033L7.51512 19.9144C7.48563 20.0302 7.50264 20.153 7.56252 20.2564C7.6224 20.3598 7.72037 20.4356 7.83548 20.4677Z" fill="#FFF"/>
<path d="M27.1875 25.017V24.9219C27.1875 24.321 26.9488 23.7447 26.5239 23.3198C26.099 22.8949 25.5228 22.6562 24.9219 22.6562C24.321 22.6562 23.7447 22.8949 23.3198 23.3198C22.8949 23.7447 22.6562 24.321 22.6562 24.9219C22.6562 25.0421 22.6085 25.1573 22.5235 25.2423C22.4386 25.3273 22.3233 25.375 22.2031 25.375C22.0829 25.375 21.9677 25.3273 21.8827 25.2423C21.7977 25.1573 21.75 25.0421 21.75 24.9219V7.25H15.3714C15.303 7.72835 15.1256 8.18461 14.853 8.58355L17.8287 19.6797C17.8992 19.9501 17.8848 20.2358 17.7876 20.4978C17.6903 20.7599 17.5148 20.9857 17.2849 21.1446L17.6587 22.5389C17.6742 22.5964 17.6781 22.6563 17.6703 22.7153C17.6626 22.7743 17.6433 22.8312 17.6135 22.8828C17.5838 22.9343 17.5442 22.9795 17.497 23.0157C17.4497 23.052 17.3959 23.0786 17.3384 23.094C17.2994 23.1043 17.2591 23.1095 17.2188 23.1094C17.119 23.1094 17.022 23.0765 16.9429 23.0158C16.8638 22.9551 16.8069 22.8699 16.781 22.7736L16.4067 21.3762C16.1264 21.3592 15.8587 21.2534 15.6424 21.0742C15.4262 20.895 15.2725 20.6516 15.2037 20.3793L13.7125 14.8172C13.3738 14.8798 13.0314 14.9209 12.6875 14.94V15.4062C12.6875 15.5264 12.6398 15.6417 12.5548 15.7267C12.4698 15.8116 12.3546 15.8594 12.2344 15.8594C12.1142 15.8594 11.9989 15.8116 11.914 15.7267C11.829 15.6417 11.7812 15.5264 11.7812 15.4062V14.94C11.4374 14.9212 11.095 14.8804 10.7563 14.8181L9.26459 20.3811C9.19555 20.6532 9.04189 20.8964 8.82576 21.0755C8.60963 21.2547 8.34219 21.3606 8.062 21.378L7.78061 22.4274C9.3095 23.1716 10.9871 23.5596 12.6875 23.5625C12.8077 23.5625 12.9229 23.6102 13.0079 23.6952C13.0929 23.7802 13.1406 23.8954 13.1406 24.0156C13.1406 24.1358 13.0929 24.2511 13.0079 24.336C12.9229 24.421 12.8077 24.4688 12.6875 24.4688C10.4395 24.4615 8.23658 23.8372 6.31894 22.664C4.40131 21.4908 2.84252 19.8137 1.8125 17.8155V27.1875H25.017C25.5923 27.1863 26.1437 26.9572 26.5505 26.5505C26.9572 26.1437 27.1863 25.5923 27.1875 25.017Z" fill="#FFF"/>
<path d="M27.1875 6.79687C27.1875 6.19599 26.9488 5.61972 26.5239 5.19484C26.099 4.76995 25.5228 4.53125 24.9219 4.53125C24.321 4.53125 23.7447 4.76995 23.3198 5.19484C22.8949 5.61972 22.6562 6.19599 22.6562 6.79687V22.7016C22.9513 22.3996 23.3037 22.1597 23.6928 21.9959C24.0818 21.8322 24.4997 21.7478 24.9219 21.7478C25.344 21.7478 25.7619 21.8322 26.151 21.9959C26.54 22.1597 26.8925 22.3996 27.1875 22.7016V6.79687Z" fill="#FFF"/>
<path d="M1.8125 7.25V15.3936C2.62325 18.1683 4.46523 20.5275 6.96045 21.987L7.18702 21.1442C6.95666 20.9861 6.7806 20.7608 6.68282 20.4991C6.58504 20.2374 6.57028 19.9519 6.64055 19.6815L9.61667 8.58355C9.34369 8.18469 9.16603 7.72843 9.09739 7.25H1.8125Z" fill="#FFF"/>
<path d="M16.2877 20.4216C16.3913 20.4813 16.5143 20.4976 16.6298 20.4669H16.6325C16.7475 20.4342 16.845 20.3578 16.9043 20.2541C16.9636 20.1503 16.9799 20.0275 16.9497 19.9119L14.1186 9.34229C13.8687 9.52783 13.5928 9.67548 13.2998 9.78046L16.0797 20.1461C16.0943 20.2036 16.1202 20.2575 16.1559 20.3049C16.1917 20.3522 16.2365 20.3919 16.2877 20.4216Z" fill="#FFF"/>
</svg>
