<svg width="18" height="26" viewBox="0 0 18 26" fill="none" xmlns="http://www.w3.org/2000/svg">
<path fill-rule="evenodd" clip-rule="evenodd" d="M7.59719 2.09391C3.92163 6.61173 0 11.432 0 15.8601C0 23.3601 6 25.3601 9 25.3601C12 25.3601 18 23.8601 18 15.8601C18 12.0586 14.8206 7.96797 11.7582 4.02786C10.7927 2.78573 9.83891 1.55856 9 0.360107C8.54249 0.931999 8.07189 1.51043 7.59719 2.09391ZM13.5 19.8601C14.3284 19.8601 15 18.2931 15 16.3601C15 14.4271 14.3284 12.8601 13.5 12.8601C12.6716 12.8601 12 14.4271 12 16.3601C12 18.2931 12.6716 19.8601 13.5 19.8601Z" fill="white"/>
</svg>
