<svg width="15" height="21" viewBox="0 0 15 21" fill="none" xmlns="http://www.w3.org/2000/svg">
<path fill-rule="evenodd" clip-rule="evenodd" d="M13.6955 6.0611C13.6955 6.77511 13.3634 7.41702 12.8349 7.86069C14.1344 8.55513 15 9.79665 15 11.2126C15 13.2158 13.2676 14.8699 11.0252 15.1197C10.2753 15.7283 9.36015 16.1467 8.35587 16.2999V19.1439H10.924V20.6062H8.35587V20.6069H6.64392V16.2999C5.63972 16.1467 4.72461 15.7283 3.97484 15.1197C1.73243 14.8698 0 13.2158 0 11.2126C0 9.79666 0.865621 8.55515 2.16511 7.86071C1.63658 7.41704 1.30444 6.77512 1.30444 6.0611C1.30444 4.72215 2.47239 3.63672 3.91313 3.63672C3.93717 3.63672 3.96113 3.63702 3.98502 3.63762C3.93781 3.44147 3.91302 3.23844 3.91302 3.03052C3.91302 1.35681 5.51895 0 7.49997 0C9.48098 0 11.0869 1.35681 11.0869 3.03052C11.0869 3.23844 11.0621 3.44148 11.0149 3.63763C11.0388 3.63702 11.0628 3.63672 11.0868 3.63672C12.5276 3.63672 13.6955 4.72215 13.6955 6.0611Z" fill="white"/>
</svg>
